<svg xmlns="http://www.w3.org/2000/svg" width="29" height="29" viewBox="0 0 29 29">
  <path d="M28.60555,14.13495c0,7.80649 -6.32843,14.13495 -14.13487,14.13495c-7.80647,0 -14.13487,-6.32846 -14.13487,-14.13495c0,-7.80652 6.3284,-14.13495 14.13487,-14.13495c7.80644,0 14.13487,6.32844 14.13487,14.13495z" fill="#ffffff"/>
  <path d="M15.26856,22.31874v0v-7.53211v0h2.51175v0l0.37335,-2.94904v0h-2.8851v0v-1.87842c0,-0.85098 0.23437,-1.43362 1.44165,-1.43362h1.52975v0v-2.62924c-0.7443,-0.0807 -1.49247,-0.11966 -2.24103,-0.11671c-2.22013,0 -3.74445,1.37114 -3.74445,3.88826v2.16422v0h-2.49539v0v2.94905v0h2.50085v0v7.53762v0z" fill="#00bd9d"/>
</svg>