<svg width="145" height="144" xmlns="http://www.w3.org/2000/svg" xmlns:xlink="http://www.w3.org/1999/xlink" overflow="hidden"><defs><clipPath id="clip0"><rect x="217" y="48" width="145" height="144"/></clipPath><clipPath id="clip1"><rect x="218" y="48" width="144" height="144"/></clipPath><clipPath id="clip2"><rect x="218" y="48" width="144" height="145"/></clipPath><clipPath id="clip3"><rect x="218" y="48" width="144" height="145"/></clipPath><clipPath id="clip4"><rect x="218" y="48" width="144" height="144"/></clipPath></defs><g clip-path="url(#clip0)" transform="translate(-217 -48)"><g clip-path="url(#clip1)"><g clip-path="url(#clip2)"><g clip-path="url(#clip3)"><g clip-path="url(#clip4)"><path d="M1980.97 673.297C1980.97 673.297 1980.97 673.297 1980.97 673.297 1942.36 673.297 1910.92 640.987 1910.92 601.297 1910.92 561.608 1942.36 529.297 1980.97 529.297 2019.59 529.297 2051.03 561.608 2051.03 601.297 2051.03 640.987 2019.59 673.297 1980.97 673.297" fill="#39B54A" fill-rule="evenodd" fill-opacity="1" transform="matrix(1.02778 0 0 1 -1746 -481.297)"/><path d="M1953.73 579.892 1969.3 579.892 1969.3 630.487 1953.73 630.487Z" fill="#FFFFFF" fill-rule="nonzero" fill-opacity="1" transform="matrix(1.02778 0 0 1 -1746 -481.297)"/><path d="M1973.19 595.459 1988.76 595.459 1988.76 630.487 1973.19 630.487Z" fill="#FFFFFF" fill-rule="nonzero" fill-opacity="1" transform="matrix(1.02778 0 0 1 -1746 -481.297)"/><path d="M1996.54 572.108 2012.11 572.108 2012.11 630.487 1996.54 630.487Z" fill="#FFFFFF" fill-rule="nonzero" fill-opacity="1" transform="matrix(1.02778 0 0 1 -1746 -481.297)"/></g></g></g></g></g></svg>