<svg width="146" height="144" xmlns="http://www.w3.org/2000/svg" xmlns:xlink="http://www.w3.org/1999/xlink" overflow="hidden"><defs><clipPath id="clip0"><rect x="414" y="48" width="146" height="144"/></clipPath><clipPath id="clip1"><rect x="415" y="48" width="144" height="144"/></clipPath><clipPath id="clip2"><rect x="415" y="48" width="144" height="145"/></clipPath><clipPath id="clip3"><rect x="415" y="48" width="144" height="145"/></clipPath><clipPath id="clip4"><rect x="415" y="48" width="144" height="144"/></clipPath></defs><g clip-path="url(#clip0)" transform="translate(-414 -48)"><g clip-path="url(#clip1)"><g clip-path="url(#clip2)"><g clip-path="url(#clip3)"><g clip-path="url(#clip4)"><path d="M2140.54 673.297C2140.54 673.297 2140.54 673.297 2140.54 673.297 2101.93 673.297 2070.49 640.987 2070.49 601.297 2070.49 561.608 2101.93 529.297 2140.54 529.297 2179.16 529.297 2210.59 561.608 2210.59 601.297 2210.59 640.987 2179.16 673.297 2140.54 673.297" fill="#F15A24" fill-rule="evenodd" fill-opacity="1" transform="matrix(1.02778 0 0 1 -1713 -481.297)"/><path d="M2144.88 599.071C2141.86 599.414 2141.86 599.071 2141.18 601.811 2140.17 605.236 2139.51 608.318 2138.16 611.743 2136.14 616.195 2133.12 619.62 2128.08 621.333 2125.06 622.36 2121.7 622.703 2118.34 622.018 2116.66 621.675 2115.31 620.648 2114.31 619.278 2113.3 617.908 2113.63 615.853 2114.98 614.826 2115.99 613.456 2118 613.456 2119.35 614.141 2121.03 615.168 2121.7 616.88 2121.36 618.593 2121.03 618.593 2121.03 618.935 2121.03 619.278 2122.37 619.62 2124.05 619.278 2125.06 618.593 2126.07 617.565 2127.41 616.195 2128.08 614.826 2129.43 611.743 2130.1 608.318 2131.11 605.236 2131.78 603.181 2132.11 601.126 2132.45 599.071 2130.77 599.071 2129.09 599.071 2127.74 599.071 2126.4 599.071 2125.73 598.386 2126.07 597.701 2126.07 596.674 2127.07 596.331 2127.74 596.331 2129.43 596.331 2130.77 596.331 2132.45 596.331 2133.12 596.331 2133.46 595.989 2133.79 595.304 2134.8 592.564 2135.81 589.824 2137.49 587.427 2141.52 580.919 2148.91 579.892 2154.29 580.577 2156.3 580.919 2157.65 581.604 2158.99 583.317 2160 584.687 2160 586.742 2158.66 588.112 2157.31 589.139 2155.29 589.482 2153.95 588.454 2152.27 587.769 2151.6 586.057 2152.27 584.344 2152.27 584.002 2152.27 583.659 2152.61 583.317 2150.93 582.974 2149.59 583.317 2148.58 584.344 2147.57 585.029 2146.22 586.057 2145.55 587.427 2143.87 590.167 2143.2 593.249 2142.53 596.331" fill="#FFFFFF" fill-rule="evenodd" fill-opacity="1" transform="matrix(1.02778 0 0 1 -1713 -481.297)"/><path d="M2140.54 597.082C2144.86 597.082 2144.86 597.082 2144.86 597.082 2146.52 597.082 2148.18 596.109 2150.18 596.109 2151.83 596.109 2153.17 596.432 2154.16 597.405 2155.16 598.378 2155.82 599.351 2156.82 600.647 2158.15 599.351 2159.48 597.728 2160.81 596.432 2161.14 595.782 2161.8 595.459 2162.47 595.459 2163.8 595.459 2164.79 595.459 2165.79 595.459 2165.46 595.782 2165.46 596.109 2165.13 596.432 2163.13 598.378 2161.14 600.647 2158.81 602.92 2158.48 603.566 2158.48 603.893 2158.81 604.539 2159.81 606.162 2160.47 607.785 2161.47 609.731 2162.47 611.35 2163.8 612.323 2166.12 612 2166.46 612 2167.12 612 2167.45 612 2167.45 612 2167.45 612 2167.78 612.323 2167.12 612.65 2166.79 613.296 2166.12 613.296 2164.13 614.596 2161.8 614.919 2159.48 614.596 2158.48 614.269 2157.49 613.623 2156.49 612.65 2155.49 611.677 2154.49 610.054 2153.5 608.758 2153.17 609.081 2152.83 609.731 2152.17 610.054 2150.84 611.35 2149.84 612.65 2148.52 613.946 2148.18 614.269 2147.52 614.596 2146.85 614.596 2145.86 614.919 2144.86 614.596 2143.53 614.596 2143.86 614.269 2143.86 613.946 2144.2 613.946 2146.52 611.35 2148.85 608.758 2151.5 606.162 2151.83 605.839 2151.83 605.512 2151.5 604.866 2150.51 603.243 2149.51 601.62 2148.52 600.324 2147.18 598.701 2145.19 598.701 2143.2 599.028" fill="#FFFFFF" fill-rule="evenodd" fill-opacity="1" transform="matrix(1.02778 0 0 1 -1713 -481.297)"/></g></g></g></g></g></svg>