<svg xmlns="http://www.w3.org/2000/svg" xmlns:xlink="http://www.w3.org/1999/xlink" width="188.127" height="178.625" viewBox="0 0 188.127 178.625">
  <defs>
    <clipPath id="clip-path">
      <rect id="Rectangle_3484" data-name="Rectangle 3484" width="188.127" height="178.625" transform="translate(0.873 0.91)" fill="#fff"/>
    </clipPath>
  </defs>
  <g id="Group_79515" data-name="Group 79515" transform="translate(-0.873 -0.91)" clip-path="url(#clip-path)">
    <path id="Path_47380" data-name="Path 47380" d="M81.5,83.3V41.008A39.99,39.99,0,0,0,69.692,12.655a40.466,40.466,0,0,0-57.011,0A39.99,39.99,0,0,0,.873,41.008V176.862a2.665,2.665,0,0,0,.787,1.89,2.692,2.692,0,0,0,1.9.783H41.186V88.645a2.666,2.666,0,0,1,.787-1.89,2.7,2.7,0,0,1,1.9-.783H78.812a2.7,2.7,0,0,0,1.9-.783A2.666,2.666,0,0,0,81.5,83.3Z" fill="#0eafdb"/>
    <path id="Path_47381" data-name="Path 47381" d="M189,176.983V73.475a2.67,2.67,0,0,0-.51-1.577L150.864,20.211a2.7,2.7,0,0,0-4.3,0L108.939,71.9a2.664,2.664,0,0,0-.511,1.577V179.536h78.059a2.56,2.56,0,0,0,1.784-.763A2.528,2.528,0,0,0,189,176.983Z" fill="#f2542d"/>
    <path id="Path_47382" data-name="Path 47382" d="M57.311,99.339h81.15a2.693,2.693,0,0,1,1.9.783,2.666,2.666,0,0,1,.788,1.89v77.524H54.624V102.012a2.665,2.665,0,0,1,.787-1.89A2.694,2.694,0,0,1,57.311,99.339Z" fill="#ffcb47"/>
  </g>
</svg>
