<svg id="Group_79335" data-name="Group 79335" xmlns="http://www.w3.org/2000/svg" width="129.069" height="129.069" viewBox="0 0 129.069 129.069">
  <path id="Vector" d="M46.1,23.048A23.048,23.048,0,1,0,23.048,46.1,23.048,23.048,0,0,0,46.1,23.048Z" transform="translate(82.973 82.973)" fill="#ffcb47"/>
  <path id="Vector-2" data-name="Vector" d="M35.033,0H1.844A1.844,1.844,0,0,0,0,1.844V53.472a1.844,1.844,0,0,0,1.844,1.844H35.033a1.844,1.844,0,0,0,1.844-1.844V1.844A1.844,1.844,0,0,0,35.033,0Z" transform="translate(9.219 0)" fill="#ffcb47"/>
  <path id="Vector-3" data-name="Vector" d="M36.877,0H1.844A1.844,1.844,0,0,0,0,1.844V9.219H25.814a1.844,1.844,0,0,1,1.844,1.844V36.877h9.219a1.844,1.844,0,0,0,1.844-1.844V1.844A1.844,1.844,0,0,0,36.877,0Z" transform="translate(82.973 9.219)" fill="#f2542d"/>
  <path id="Vector-4" data-name="Vector" d="M18.439,0H1.844A1.844,1.844,0,0,0,0,1.844V44.252A1.844,1.844,0,0,0,1.844,46.1H44.252A1.844,1.844,0,0,0,46.1,44.252V27.658H20.282a1.844,1.844,0,0,1-1.844-1.844Z" transform="translate(0 82.973)" fill="#f2542d"/>
  <path id="Vector-5" data-name="Vector" d="M0,1.844V71.91a1.844,1.844,0,0,0,1.844,1.844H71.91a1.844,1.844,0,0,0,1.844-1.844V1.844A1.844,1.844,0,0,0,71.91,0H1.844A1.844,1.844,0,0,0,0,1.844ZM50.143,50.558C30.552,65.18,8.574,43.183,23.2,23.61a1.775,1.775,0,0,1,.415-.415C43.2,8.574,65.18,30.571,50.558,50.143A1.771,1.771,0,0,1,50.143,50.558Z" transform="translate(27.658 27.657)" fill="#0eafdb"/>
</svg>
