<svg xmlns="http://www.w3.org/2000/svg" width="110.799" height="129.069" viewBox="0 0 110.799 129.069">
  <g id="Group_79437" data-name="Group 79437" transform="translate(0 0)">
    <path id="Vector" d="M0,46.927A47.1,47.1,0,0,0,13.661,80.12,46.535,46.535,0,0,0,46.648,93.883V0A46.535,46.535,0,0,0,13.671,13.753,47.1,47.1,0,0,0,0,46.927Z" transform="translate(0 17.579)" fill="#ffcb47"/>
    <path id="Vector-2" data-name="Vector" d="M0,1.845V17.579A46.536,46.536,0,0,1,33,31.332a47.1,47.1,0,0,1,13.671,33.2A47.1,47.1,0,0,1,33,97.737,46.535,46.535,0,0,1,0,111.49v15.735a1.851,1.851,0,0,0,.537,1.3,1.831,1.831,0,0,0,1.3.54,64,64,0,0,0,44.161-19.555A64.766,64.766,0,0,0,64.133,64.534,64.765,64.765,0,0,0,45.995,19.555,64,64,0,0,0,1.834,0a1.828,1.828,0,0,0-1.3.54A1.85,1.85,0,0,0,0,1.845Z" transform="translate(46.666 0)" fill="#00bd9d"/>
    <path id="Vector-3" data-name="Vector" d="M27.5,55.339A27.67,27.67,0,1,0,0,27.669,27.588,27.588,0,0,0,27.5,55.339Z" transform="translate(19.134 36.864)" fill="#0eafdb"/>
  </g>
</svg>
