<svg xmlns="http://www.w3.org/2000/svg" xmlns:xlink="http://www.w3.org/1999/xlink" width="179.555" height="179.555" viewBox="0 0 179.555 179.555">
  <defs>
    <clipPath id="clip-path">
      <rect id="Rectangle_3487" data-name="Rectangle 3487" width="179.555" height="179.555" transform="translate(0.445 0.445)" fill="#fff"/>
    </clipPath>
  </defs>
  <g id="Group_79518" data-name="Group 79518" transform="translate(-0.445 -0.445)" clip-path="url(#clip-path)">
    <path id="Path_47389" data-name="Path 47389" d="M180,147.937A32.063,32.063,0,1,0,147.935,180,32.065,32.065,0,0,0,180,147.937Z" fill="#ffcb47"/>
    <path id="Path_47390" data-name="Path 47390" d="M62.008.445H15.837A2.565,2.565,0,0,0,13.271,3.01V74.832A2.565,2.565,0,0,0,15.837,77.4H62.008a2.565,2.565,0,0,0,2.565-2.565V3.01A2.565,2.565,0,0,0,62.008.445Z" fill="#ffcb47"/>
    <path id="Path_47391" data-name="Path 47391" d="M167.173,13.271H118.437a2.565,2.565,0,0,0-2.565,2.565V26.1h35.911a2.565,2.565,0,0,1,2.565,2.565V64.572h12.825a2.565,2.565,0,0,0,2.565-2.565V15.836a2.565,2.565,0,0,0-2.565-2.565Z" fill="#f2542d"/>
    <path id="Path_47392" data-name="Path 47392" d="M26.1,115.873H3.01a2.566,2.566,0,0,0-2.565,2.565v59A2.565,2.565,0,0,0,3.01,180h59a2.564,2.564,0,0,0,2.565-2.565V154.349H28.661a2.564,2.564,0,0,1-2.565-2.565Z" fill="#f2542d"/>
    <path id="Path_47393" data-name="Path 47393" d="M38.921,41.487v97.472a2.564,2.564,0,0,0,2.565,2.565h97.472a2.566,2.566,0,0,0,2.566-2.565V41.487a2.566,2.566,0,0,0-2.566-2.565H41.486a2.565,2.565,0,0,0-2.565,2.565Zm69.757,67.769C81.424,129.6,50.848,99,71.189,71.767a2.464,2.464,0,0,1,.577-.577c27.254-20.341,57.829,10.26,37.488,37.489A2.469,2.469,0,0,1,108.678,109.256Z" fill="#0eafdb"/>
  </g>
</svg>
