<svg xmlns="http://www.w3.org/2000/svg" xmlns:xlink="http://www.w3.org/1999/xlink" width="154.668" height="180.143" viewBox="0 0 154.668 180.143">
  <defs>
    <clipPath id="clip-path">
      <rect id="Rectangle_3486" data-name="Rectangle 3486" width="154.668" height="180.143" transform="translate(0.332 0.151)" fill="#fff"/>
    </clipPath>
  </defs>
  <g id="Group_79517" data-name="Group 79517" transform="translate(-0.332 -0.151)" clip-path="url(#clip-path)">
    <path id="Path_47386" data-name="Path 47386" d="M.332,90.184A65.736,65.736,0,0,0,19.4,136.511a64.954,64.954,0,0,0,46.04,19.209V24.687A64.95,64.95,0,0,0,19.413,43.882,65.735,65.735,0,0,0,.332,90.184Z" fill="#ffcb47"/>
    <path id="Path_47387" data-name="Path 47387" d="M65.464,2.726V24.687a64.949,64.949,0,0,1,46.065,19.195,65.812,65.812,0,0,1,0,92.681,64.946,64.946,0,0,1-46.065,19.195v21.961a2.583,2.583,0,0,0,.75,1.821,2.55,2.55,0,0,0,1.81.754A89.326,89.326,0,0,0,129.66,153a90.5,90.5,0,0,0,0-125.555A89.327,89.327,0,0,0,68.024.151a2.551,2.551,0,0,0-1.81.754A2.582,2.582,0,0,0,65.464,2.726Z" fill="#00bd9d"/>
    <path id="Path_47388" data-name="Path 47388" d="M65.426,128.841A38.619,38.619,0,1,0,27.038,90.223,38.5,38.5,0,0,0,65.426,128.841Z" fill="#0eafdb"/>
  </g>
</svg>
