<svg width="145" height="144" xmlns="http://www.w3.org/2000/svg" xmlns:xlink="http://www.w3.org/1999/xlink" overflow="hidden"><defs><clipPath id="clip0"><rect x="1008" y="48" width="145" height="144"/></clipPath><clipPath id="clip1"><rect x="1009" y="48" width="144" height="144"/></clipPath><clipPath id="clip2"><rect x="1009" y="48" width="144" height="145"/></clipPath><clipPath id="clip3"><rect x="1009" y="48" width="144" height="145"/></clipPath><clipPath id="clip4"><rect x="1009" y="48" width="145" height="144"/></clipPath></defs><g clip-path="url(#clip0)" transform="translate(-1008 -48)"><g clip-path="url(#clip1)"><g clip-path="url(#clip2)"><g clip-path="url(#clip3)"><g clip-path="url(#clip4)"><path d="M1081.18 192C1081.18 192 1081.18 192 1081.18 192 1041.04 192 1009 159.69 1009 120 1009 80.3105 1041.04 48 1081.18 48 1120.96 48 1153 80.3105 1153 120 1153 159.69 1120.96 192 1081.18 192" fill="#A235C4" fill-rule="evenodd" fill-opacity="1"/><path d="M1051.81 145.297C1110.19 145.297 1110.19 145.297 1110.19 145.297 1110.19 94.7027 1110.19 94.7027 1110.19 94.7027 1051.81 94.7027 1051.81 94.7027 1051.81 94.7027L1051.81 145.297ZM1090.97 100.011C1095.95 100.011 1099.87 103.903 1099.87 108.854 1099.87 113.808 1095.95 117.7 1090.97 117.7 1086.34 117.7 1082.42 113.808 1082.42 108.854 1082.42 103.903 1086.34 100.011 1090.97 100.011M1053.24 141.76C1067.83 118.762 1067.83 118.762 1067.83 118.762 1090.97 133.267 1090.97 133.267 1090.97 133.267 1102.71 124.421 1102.71 124.421 1102.71 124.421 1105.56 141.76 1105.56 141.76 1105.56 141.76L1053.24 141.76Z" fill="#FFFFFF" fill-rule="evenodd" fill-opacity="1"/></g></g></g></g></g></svg>