<svg width="144" height="144" xmlns="http://www.w3.org/2000/svg" xmlns:xlink="http://www.w3.org/1999/xlink" overflow="hidden"><defs><clipPath id="clip0"><rect x="20" y="48" width="144" height="144"/></clipPath></defs><g clip-path="url(#clip0)" transform="translate(-20 -48)"><path d="M92.0001 192C92.0001 192 92.0001 192 92.0001 192 52.3106 192 20.0001 159.69 20.0001 120 20.0001 80.3105 52.3106 48 92.0001 48 131.69 48 164 80.3105 164 120 164 159.69 131.69 192 92.0001 192" fill="#FAA31D" fill-rule="evenodd" fill-opacity="1"/><path d="M62.8109 110.27C62.8109 123.717 62.8109 123.717 62.8109 123.717 62.8109 125.838 73.4941 129.73 90.2331 129.73 106.614 129.73 113.378 125.838 117.297 123.717 117.297 110.27 117.297 110.27 117.297 110.27 109.105 113.454 100.916 115.225 90.2331 115.225 79.5499 115.225 71.3575 113.454 62.8109 110.27" fill="#FFFFFF" fill-rule="evenodd" fill-opacity="1"/><path d="M62.8109 129.73C62.8109 143.176 62.8109 143.176 62.8109 143.176 62.8109 144.943 73.8522 149.189 90.2331 149.189 106.614 149.189 113.378 144.943 117.297 143.176 117.297 129.73 117.297 129.73 117.297 129.73 109.105 132.913 100.916 134.684 90.2331 134.684 79.5499 134.684 71.3575 132.913 62.8109 129.73" fill="#FFFFFF" fill-rule="evenodd" fill-opacity="1"/><path d="M90.2331 90.8108C73.8522 90.8108 62.8109 94.3057 62.8109 96.2128 62.8109 100.976 62.8109 100.976 62.8109 100.976 62.8109 102.564 73.4941 106.378 90.2331 106.378 106.614 106.378 113.378 102.564 117.297 100.976 117.297 96.2128 117.297 96.2128 117.297 96.2128 113.378 94.6249 106.614 90.8108 90.2331 90.8108" fill="#FFFFFF" fill-rule="evenodd" fill-opacity="1"/></g></svg>