<?xml version="1.0" encoding="UTF-8" standalone="no"?><!DOCTYPE svg PUBLIC "-//W3C//DTD SVG 1.1//EN" "http://www.w3.org/Graphics/SVG/1.1/DTD/svg11.dtd"><svg width="100%" height="100%" viewBox="0 0 1024 170" version="1.1" xmlns="http://www.w3.org/2000/svg" xmlns:xlink="http://www.w3.org/1999/xlink" xml:space="preserve" style="fill-rule:evenodd;clip-rule:evenodd;stroke-linejoin:round;stroke-miterlimit:1.41421;"><path d="M241.092,111.393c-9.518,0 -17.222,-3.777 -22.057,-11.18l0,29.762l-7.704,0l0,-76.745l7.704,0l0,9.819c4.835,-7.1 12.69,-11.179 22.359,-11.179c16.92,0 29.912,12.992 29.912,29.912c0,16.618 -13.294,29.611 -30.214,29.611Zm-0.151,-52.423c-12.539,0 -22.51,9.82 -22.51,22.51c0,13.144 9.669,22.963 22.661,22.963c12.69,0 22.359,-9.819 22.359,-22.51c0,-13.294 -9.669,-22.963 -22.51,-22.963Z" style="fill:#9d9d9c;fill-rule:nonzero;"/><path d="M289.888,76.948l0,33.085l-7.704,0l0,-56.803l7.704,0l0,8.158c3.022,-6.194 7.856,-9.065 16.165,-9.518l0,7.554c-10.877,1.057 -16.165,6.949 -16.165,17.524Z" style="fill:#9d9d9c;fill-rule:nonzero;"/><path d="M338.534,111.393c-17.676,0 -30.517,-12.69 -30.517,-30.064c0,-16.618 12.992,-29.459 29.762,-29.459c17.071,0 29.459,12.539 29.459,29.912c0.151,17.072 -12.086,29.611 -28.704,29.611Zm-0.604,-52.423c-12.539,0 -22.057,9.669 -22.057,22.51c0,13.295 9.367,22.812 22.51,22.812c12.388,0 21.301,-9.517 21.301,-22.51c0,-13.143 -9.215,-22.812 -21.754,-22.812Z" style="fill:#9d9d9c;fill-rule:nonzero;"/><path d="M428.724,110.033l0,-10.273c-5.74,8.158 -12.085,11.633 -21.603,11.633c-17.524,0 -30.97,-12.841 -30.97,-29.762c0,-16.92 13.143,-29.761 30.215,-29.761c8.913,0 16.769,3.626 22.358,10.424l0,-29.006l7.705,0l0,76.745l-7.705,0Zm-22.509,-51.063c-12.388,0 -22.208,9.971 -22.208,22.51c0,12.993 9.971,22.963 22.963,22.963c12.086,0 22.057,-10.424 22.057,-22.812c0,-12.69 -10.273,-22.661 -22.812,-22.661Z" style="fill:#9d9d9c;fill-rule:nonzero;"/><path d="M492.024,110.033l0,-8.762c-3.777,7.1 -9.518,10.122 -18.28,10.122c-14.503,0 -24.171,-7.705 -24.171,-27.496l0,-30.667l7.704,0l0,30.667c0,14.503 6.043,20.395 17.071,20.395c10.425,0 17.676,-6.496 17.676,-21.905l0,-29.157l7.705,0l0,56.803l-7.705,0Z" style="fill:#9d9d9c;fill-rule:nonzero;"/><path d="M541.576,111.393c-17.525,0 -30.97,-12.993 -30.97,-29.913c0,-16.467 13.445,-29.61 30.517,-29.61c12.841,0 23.718,7.1 28.25,18.582l-8.611,0c-4.381,-7.554 -11.33,-11.482 -19.79,-11.482c-12.69,0 -22.51,9.971 -22.51,22.812c0,12.539 10.122,22.661 22.812,22.661c8.007,0 13.445,-3.172 19.488,-11.028l8.762,0c-6.949,12.841 -16.315,17.978 -27.948,17.978Z" style="fill:#9d9d9c;fill-rule:nonzero;"/><path d="M594.603,60.179l0,49.854l-7.705,0l0,-49.854l-12.237,0l0,-6.949l12.237,0l0,-19.942l7.705,0l0,19.942l12.841,0l0,6.949l-12.841,0Z" style="fill:#9d9d9c;fill-rule:nonzero;"/><path d="M615.148,47.036l0,-13.144l7.705,0l0,13.144l-7.705,0Zm0,62.997l0,-56.803l7.705,0l0,56.803l-7.705,0Z" style="fill:#9d9d9c;fill-rule:nonzero;"/><path d="M662.283,110.033l-8.158,0l-23.869,-56.803l7.856,0l19.941,47.739l20.395,-47.739l7.856,0l-24.021,56.803Z" style="fill:#9d9d9c;fill-rule:nonzero;"/><path d="M696.426,84.2c0.604,11.179 10.424,20.092 22.056,20.092c8.612,0 16.618,-5.136 19.791,-12.992l8.007,0c-3.626,10.877 -14.805,20.093 -27.647,20.093c-16.769,0 -30.063,-13.144 -30.063,-30.064c0,-16.467 12.992,-29.459 29.459,-29.459c16.769,0 29.61,12.086 29.61,32.33l-51.213,0Zm21.754,-25.23c-10.877,0 -19.488,7.403 -21.452,18.28l43.509,0c-2.568,-11.33 -11.028,-18.28 -22.057,-18.28Z" style="fill:#9d9d9c;fill-rule:nonzero;"/><rect x="755.193" y="79.365" width="28.1" height="6.496" style="fill:#9d9d9c;fill-rule:nonzero;"/><path d="M837.528,110.033l0,-7.554c-5.439,6.194 -11.18,8.763 -19.035,8.763c-16.316,0 -28.855,-13.144 -28.855,-30.215c0,-17.222 12.69,-30.819 28.855,-30.819c7.251,0 13.898,2.719 17.977,7.101l0,-24.021l13.748,0l0,76.745l-12.69,0Zm-17.222,-46.984c-9.518,0 -16.77,7.705 -16.77,17.525c0,10.122 7.554,18.129 17.072,18.129c9.366,0 16.769,-7.856 16.769,-17.827c0,-9.971 -7.403,-17.827 -17.071,-17.827Z" style="fill:#2e2868;fill-rule:nonzero;"/><path d="M906.266,110.033l0,-7.554c-5.439,6.194 -11.028,8.763 -19.186,8.763c-16.769,0 -29.006,-12.539 -29.006,-29.913c0,-17.524 12.237,-30.365 29.308,-30.365c8.309,0 14.05,2.719 18.884,9.064l0,-7.705l12.69,0l0,57.559l-12.69,0l0,0.151Zm-17.373,-46.228c-9.82,0 -16.769,7.553 -16.769,17.977c0,10.122 6.949,16.921 17.071,16.921c10.424,0 16.769,-7.554 16.769,-17.072c-0.151,-10.424 -7.252,-17.826 -17.071,-17.826Z" style="fill:#2e2868;fill-rule:nonzero;"/><path d="M945.092,65.013l0,45.02l-13.899,0l0,-45.02l-6.798,0l0,-12.539l6.798,0l0,-19.186l13.899,0l0,19.186l8.309,0l0,12.539l-8.309,0Z" style="fill:#2e2868;fill-rule:nonzero;"/><path d="M1004.92,110.033l0,-7.554c-5.439,6.194 -11.029,8.763 -19.187,8.763c-16.769,0 -29.006,-12.539 -29.006,-29.913c0,-17.524 12.237,-30.365 29.309,-30.365c8.309,0 14.049,2.719 18.733,9.064l0,-7.705l12.69,0l0,57.559l-12.539,0l0,0.151Zm-17.374,-46.228c-9.819,0 -16.769,7.553 -16.769,17.977c0,10.122 6.95,16.921 17.071,16.921c10.424,0 16.769,-7.554 16.769,-17.072c0,-10.424 -7.1,-17.826 -17.071,-17.826Z" style="fill:#2e2868;fill-rule:nonzero;"/><path d="M142.139,73.171c-6.949,-12.992 -16.769,-24.927 -27.797,-34.444l15.258,29.912l-13.143,-0.755c-1.662,-2.72 -3.475,-5.288 -5.59,-7.705c-3.173,-3.777 -6.647,-7.1 -10.424,-9.971c-3.777,-2.87 -7.705,-5.287 -12.086,-7.402c-4.381,-2.115 -8.762,-3.475 -13.294,-4.079c-4.532,-0.605 -8.611,-0.454 -12.237,0.604c-3.777,1.057 -6.798,2.87 -9.065,5.439c-2.417,2.568 -3.927,6.042 -4.683,10.121c-0.453,2.72 -0.302,5.741 0.151,8.914l-22.51,-1.209c-1.057,-6.194 -1.057,-11.784 0.303,-16.769c1.51,-6.043 4.532,-11.028 8.762,-14.805c0.604,-0.604 1.359,-1.058 2.115,-1.662l0,0.151c3.928,-2.87 8.762,-4.683 14.05,-5.741c4.532,-0.906 9.366,-0.906 14.805,-0.151l0.151,0c0.755,0.151 1.511,0.151 2.115,0.302c0.755,0.152 1.511,0.303 2.115,0.454l0.151,0c5.136,1.057 10.273,2.87 15.258,5.287c5.59,2.72 10.878,5.741 16.014,9.367l-6.647,-13.899c-9.971,-5.892 -20.697,-10.424 -31.726,-12.841c-37.315,-7.856 -67.68,12.841 -58.314,54.839c4.684,21.302 18.733,42.15 37.769,58.163l-14.05,-51.515l0.302,0l22.661,0.604l0.151,0c1.662,3.626 3.777,7.1 6.345,10.424c3.928,5.136 8.46,9.517 13.445,13.143c4.986,3.626 10.273,6.496 15.863,8.46c3.928,1.36 7.554,2.115 11.18,2.266l8.309,-0.755c3.021,-0.755 5.438,-1.813 7.553,-3.626c2.871,-2.266 4.986,-5.136 6.043,-8.611c1.058,-3.323 1.36,-6.949 0.907,-11.179c-0.303,-2.72 -1.058,-5.59 -2.115,-8.46l13.294,0.302c2.115,4.985 3.626,9.668 4.381,14.352c1.058,6.194 0.907,11.934 -0.453,17.222c-0.151,0.906 -0.453,1.662 -0.756,2.568l0,-0.151c-1.661,4.835 -4.381,9.065 -8.309,12.539c-3.474,3.173 -8.006,5.439 -13.445,6.647c-0.755,0.152 -1.662,0.303 -2.417,0.454c-0.756,0.151 -1.662,0.302 -2.568,0.302l-0.151,0c-6.194,0.604 -12.691,0 -19.64,-1.964c-8.158,-2.266 -16.165,-5.892 -23.869,-10.877l8.913,27.344c16.014,6.647 31.876,8.762 45.473,5.438c33.991,-7.402 39.279,-43.66 21.452,-77.047Zm-29.61,7.554c0.151,2.87 -0.151,5.439 -1.058,7.705c-0.906,2.266 -2.417,4.079 -4.532,5.589c-2.115,1.511 -4.834,2.266 -8.158,2.417c-3.323,0.152 -6.798,-0.453 -10.575,-1.812c-3.777,-1.36 -7.251,-3.324 -10.575,-5.741c-3.324,-2.417 -6.345,-5.288 -8.913,-8.762c-2.266,-2.871 -4.079,-5.892 -5.439,-9.065c-0.151,-0.453 -0.302,-0.755 -0.453,-1.208c-1.209,-3.626 -1.662,-6.799 -1.36,-9.82c0.302,-2.87 1.209,-5.288 2.719,-7.252c1.511,-1.812 3.475,-3.172 6.043,-4.079c2.418,-0.906 5.288,-1.057 8.46,-0.755c3.173,0.302 6.194,1.209 9.367,2.719c3.173,1.36 6.043,3.173 8.762,5.288c2.72,2.115 5.137,4.532 7.554,7.251c2.266,2.72 4.23,5.59 5.59,8.763c0.151,0.302 0.302,0.604 0.453,1.057c1.208,2.568 1.964,5.137 2.115,7.705Z" style="fill:#2e2868;fill-rule:nonzero;"/></svg>