<svg width="145" height="144" xmlns="http://www.w3.org/2000/svg" xmlns:xlink="http://www.w3.org/1999/xlink" overflow="hidden"><defs><clipPath id="clip0"><rect x="612" y="48" width="145" height="144"/></clipPath><clipPath id="clip1"><rect x="613" y="48" width="144" height="144"/></clipPath><clipPath id="clip2"><rect x="613" y="48" width="144" height="145"/></clipPath><clipPath id="clip3"><rect x="613" y="48" width="144" height="145"/></clipPath><clipPath id="clip4"><rect x="613" y="48" width="144" height="144"/></clipPath></defs><g clip-path="url(#clip0)" transform="translate(-612 -48)"><g clip-path="url(#clip1)"><g clip-path="url(#clip2)"><g clip-path="url(#clip3)"><g clip-path="url(#clip4)"><path d="M2300.11 673.297C2300.11 673.297 2300.11 673.297 2300.11 673.297 2261.49 673.297 2230.05 640.987 2230.05 601.297 2230.05 561.608 2261.49 529.297 2300.11 529.297 2338.72 529.297 2370.16 561.608 2370.16 601.297 2370.16 640.987 2338.72 673.297 2300.11 673.297" fill="#CE2034" fill-rule="evenodd" fill-opacity="1" transform="matrix(1.02778 0 0 1 -1679 -481.297)"/><path d="M2272.86 572.108 2296.22 572.108 2296.22 599.351 2272.86 599.351Z" fill="#FFFFFF" fill-rule="nonzero" fill-opacity="1" transform="matrix(1.02778 0 0 1 -1679 -481.297)"/><path d="M2304 572.108 2327.35 572.108 2327.35 599.351 2304 599.351Z" fill="#FFFFFF" fill-rule="nonzero" fill-opacity="1" transform="matrix(1.02778 0 0 1 -1679 -481.297)"/><path d="M2272.86 603.243 2296.22 603.243 2296.22 630.487 2272.86 630.487Z" fill="#FFFFFF" fill-rule="nonzero" fill-opacity="1" transform="matrix(1.02778 0 0 1 -1679 -481.297)"/><path d="M2304 603.243 2327.35 603.243 2327.35 630.487 2304 630.487Z" fill="#FFFFFF" fill-rule="nonzero" fill-opacity="1" transform="matrix(1.02778 0 0 1 -1679 -481.297)"/></g></g></g></g></g></svg>