<svg width="146" height="144" xmlns="http://www.w3.org/2000/svg" xmlns:xlink="http://www.w3.org/1999/xlink" overflow="hidden"><defs><clipPath id="clip0"><rect x="810" y="48" width="146" height="144"/></clipPath><clipPath id="clip1"><rect x="811" y="48" width="144" height="144"/></clipPath><clipPath id="clip2"><rect x="811" y="48" width="144" height="145"/></clipPath><clipPath id="clip3"><rect x="811" y="48" width="144" height="145"/></clipPath><clipPath id="clip4"><rect x="811" y="48" width="144" height="144"/></clipPath></defs><g clip-path="url(#clip0)" transform="translate(-810 -48)"><g clip-path="url(#clip1)"><g clip-path="url(#clip2)"><g clip-path="url(#clip3)"><g clip-path="url(#clip4)"><path d="M883 192C883 192 883 192 883 192 843.311 192 811 159.69 811 120 811 80.3105 843.311 48 883 48 922.69 48 955 80.3105 955 120 955 159.69 922.69 192 883 192" fill="#2E8AD1" fill-rule="evenodd" fill-opacity="1"/><path d="M879.462 127.079C888.363 117.369 897.264 108.013 905.806 98.6608 905.448 98.2988 905.448 97.9408 905.448 97.9408 904.382 98.6608 903.67 99.0188 902.958 99.7388 892.636 107.293 882.669 114.489 872.344 122.043 870.92 123.125 869.853 123.483 868.429 122.763 863.089 120.603 858.107 118.447 853.122 116.649 852.056 116.287 851.344 115.929 849.919 115.209 851.344 114.489 852.056 114.131 852.768 113.769 870.565 107.655 888.009 101.179 905.448 95.0607 906.519 94.7027 907.231 95.0607 908.297 94.7027 908.297 95.7807 908.297 96.8627 908.297 97.5827 905.448 109.811 902.603 122.043 899.755 133.917 899.042 137.514 898.688 137.514 895.839 136.074 890.5 133.197 885.16 130.317 879.462 127.079" fill="#FFFFFF" fill-rule="evenodd" fill-opacity="1"/><path d="M881.054 134.221C876.886 136.614 873.547 138.712 869.378 141.405 869.378 129.73 869.378 129.73 869.378 129.73 873.547 131.228 876.886 132.723 881.054 134.221" fill="#FFFFFF" fill-rule="evenodd" fill-opacity="1"/></g></g></g></g></g></svg>