<svg id="Logo" xmlns="http://www.w3.org/2000/svg" viewBox="0 0 350 350"><defs><style>.cls-1{fill:#0eafdb;}.cls-2{fill:#bcbcbc;}</style></defs><path class="cls-1" d="M309.81,209.5l-76.82,41a.78.78,0,0,1-.37.09.79.79,0,0,1-.37-.1.8.8,0,0,1-.27-.28.79.79,0,0,1-.1-.37V219.44a.77.77,0,0,1,.11-.39.63.63,0,0,1,.28-.28l32.24-17.2a1.38,1.38,0,0,0,.47-.4,1.36,1.36,0,0,0,.24-.55,1.25,1.25,0,0,0,0-.61,1.24,1.24,0,0,0-.29-.54l-47.53-55.13a1.3,1.3,0,0,0-.7-.42,1.32,1.32,0,0,0-.81,0,1.4,1.4,0,0,0-.65.5,1.44,1.44,0,0,0-.25.77V259.38a1.35,1.35,0,0,1-.19.71,1.37,1.37,0,0,1-.54.5l-30.31,16.12a1.34,1.34,0,0,1-.68.16,1.41,1.41,0,0,1-.67-.19,1.49,1.49,0,0,1-.5-.5,1.46,1.46,0,0,1-.18-.67V62.12a1.36,1.36,0,0,1,.24-.78,1.34,1.34,0,0,1,.66-.51,1.35,1.35,0,0,1,.82,0,1.34,1.34,0,0,1,.7.44L310.22,207.4a1.33,1.33,0,0,1,.28.54,1.39,1.39,0,0,1-.22,1.16A1.5,1.5,0,0,1,309.81,209.5Z"/><path class="cls-2" d="M171.09,62.12V275.51a1.35,1.35,0,0,1-.18.67,1.38,1.38,0,0,1-.49.5,1.3,1.3,0,0,1-.67.19,1.36,1.36,0,0,1-.68-.16l-31-16.57L43.16,209.48a1.4,1.4,0,0,1-.69-.95,1.39,1.39,0,0,1,0-.61,1.29,1.29,0,0,1,.29-.54l77-89.4a.83.83,0,0,1,.38-.23.79.79,0,0,1,.81.3.71.71,0,0,1,.14.42v42.39a.7.7,0,0,1-.18.48L88.05,199.5a1.36,1.36,0,0,0-.32,1.14,1.36,1.36,0,0,0,.24.55,1.39,1.39,0,0,0,.47.4L136,227.3a1.25,1.25,0,0,0,.68.17,1.37,1.37,0,0,0,.68-.19,1.47,1.47,0,0,0,.49-.5,1.38,1.38,0,0,0,.18-.68V97.31c0-.32.12-.64,1.33-.89l30.31-35.19c-.82-.23-.58-.39-.3-.47a1.37,1.37,0,0,1,.85,0,1.36,1.36,0,0,1,.66.52A1.31,1.31,0,0,1,171.09,62.12Z"/></svg>