<svg id="Laag_1" data-name="Laag 1" xmlns="http://www.w3.org/2000/svg" xmlns:xlink="http://www.w3.org/1999/xlink" viewBox="0 0 1162.44 1013.95"><defs><style>.cls-1{fill:none;}.cls-2{clip-path:url(#clip-path);}.cls-3{fill:#fff;}.cls-4{fill:#cbdb2a;}.cls-5{fill:#074f8d;}.cls-6{fill:#7685a6;}.cls-7{fill:#e3ea9a;}</style><clipPath id="clip-path"><rect class="cls-1" x="39.38" y="23.57" width="1095.26" height="953.48"/></clipPath></defs><title>Tekengebied 1</title><g class="cls-2"><path class="cls-3" d="M507.08,593.06v-.28l.34.28Zm526.27-196.33a107.72,107.72,0,0,0,22.6-66c0-61.12-51.43-110.85-114.59-110.85A116.55,116.55,0,0,0,887,233.2v-1.3C887,117,793.19,23.57,677.75,23.57S468.4,117,468.4,231.9a202.19,202.19,0,0,0,1.76,27,117.18,117.18,0,0,0-113.85-28c-2.15-76.07-66.9-137.25-146.2-137.25-80.72,0-146.31,63.33-146.31,141.21,0,55.74,33.65,104.05,82.36,127a107.64,107.64,0,0,0-20.45,122C76.14,496,39.38,539.53,39.38,591.25,39.38,652.36,90.76,702,153.91,702c3.68,0,7.25-.17,10.82-.51a214.23,214.23,0,0,0-8.55,60C156.18,880.41,253.32,977,372.73,977s216.49-96.63,216.49-215.47c0-3.91-.11-7.82-.34-11.67A116.33,116.33,0,0,0,655,770.3c63.16,0,114.53-49.68,114.53-110.85a107.56,107.56,0,0,0-22.88-66.39H856.91c23.85,46.84,73.75,79.24,131.41,79.24,80.72,0,146.31-63.38,146.31-141.21,0-62.7-42.54-116-101.28-134.36"/></g><polygon class="cls-3" points="507.08 593.06 507.42 593.06 507.08 592.78 507.08 593.06"/><g class="cls-2"><path class="cls-4" d="M855.91,231.92c0,97.84-79.78,177.16-178.15,177.16S499.57,329.75,499.57,231.92,579.32,54.73,677.76,54.73s178.15,79.33,178.15,177.18"/><path class="cls-5" d="M558,761.59c0,101.77-83,184.28-185.33,184.28S187.35,863.36,187.35,761.59s83-184.32,185.36-184.32S558,659.79,558,761.59"/><path class="cls-4" d="M313.12,437.43c0,44-37.34,79.7-83.39,79.7s-83.38-35.69-83.38-79.7,37.34-79.68,83.38-79.68,83.39,35.67,83.39,79.68"/><path class="cls-6" d="M389,257.31c-46,0-83.38,35.69-83.38,79.7S343,416.69,389,416.69,472.4,381,472.4,337s-37.34-79.7-83.39-79.7"/><path class="cls-6" d="M153.91,511.53c-46,0-83.38,35.7-83.38,79.72s37.34,79.66,83.38,79.66,83.39-35.66,83.39-79.66S200,511.53,153.91,511.53"/><path class="cls-7" d="M655,579.76c-46,0-83.38,35.71-83.38,79.72s37.34,79.69,83.38,79.69,83.38-35.69,83.38-79.69S701,579.76,655,579.76"/><path class="cls-5" d="M1024.78,330.73c0,44-37.34,79.7-83.41,79.7S858,374.73,858,330.73,895.35,251,941.37,251s83.41,35.69,83.41,79.7"/><path class="cls-6" d="M988.34,421c-63.57,0-115.12,49.28-115.12,110.05s51.55,110,115.12,110,115.17-49.28,115.17-110S1051.94,421,988.34,421"/><path class="cls-7" d="M210.08,124.72C146.5,124.72,94.94,174,94.94,234.77S146.5,344.83,210.08,344.83s115.17-49.3,115.17-110.06S273.68,124.72,210.08,124.72"/><path class="cls-5" d="M405.52,525.67c0,23.36-16.8,39.21-43.32,39.21-18,0-32-8.79-37.65-22.93l19-18.21q9.41,14.78,20,14.78c8.1,0,13-4.71,13-12,0-7.93-5.46-9.21-13.16-12.43l-8.1-3.43c-18-7.5-27.93-22.5-27.93-41.35,0-22.28,16.4-38.14,40.89-38.14,15.59,0,27.33,6.21,34.21,10.71L393,469.75c-9.51-6.64-17.81-10.07-24.7-10.07-8.91,0-13.56,3.43-13.56,9.43,0,5.57,4,8.14,11.94,11.14l8.3,3.21c20.65,7.93,30.57,21.86,30.57,42.21"/></g><polygon class="cls-5" points="475.96 456.46 475.96 561.88 446.41 561.88 446.41 456.46 415.64 456.46 415.64 433.11 506.93 433.11 506.93 456.46 475.96 456.46"/><rect class="cls-5" x="520.31" y="433.11" width="29.35" height="128.77"/><g class="cls-2"><path class="cls-5" d="M635.49,521c0-10.5-5.67-14.14-18.22-14.14H609V535.1h8.1c12.14,0,18.42-4.93,18.42-14.14m-3.24-48.64c0-7.28-6.07-12.43-16.4-12.43H609v25.93h6.68c10.12,0,16.6-5.36,16.6-13.5m34,49.71c0,24.21-18.42,39.85-49.19,39.85H580.43V433.11h35.42c28.74,0,45.34,14.57,45.34,35.78,0,12.21-6.48,21-18.62,25.92v.43c15.59,3.64,23.68,12.86,23.68,26.78"/><path class="cls-5" d="M737.51,515l-3.24-10.5c-.81-2.57-3.64-13.07-8.3-31.07-4.45,18.21-7.08,28.71-7.89,31.28L714.63,515Zm-29.75,21.21-8.3,25.71H668.89l44.33-128.77h25.71l44.33,128.77H752.69l-8.3-25.71Z"/></g><polygon class="cls-5" points="832.85 456.46 832.85 561.88 803.3 561.88 803.3 456.46 772.53 456.46 772.53 433.11 863.82 433.11 863.82 456.46 832.85 456.46"/></svg>