<svg width="145" height="144" xmlns="http://www.w3.org/2000/svg" xmlns:xlink="http://www.w3.org/1999/xlink" overflow="hidden"><defs><clipPath id="clip0"><rect x="1008" y="216" width="145" height="144"/></clipPath><clipPath id="clip1"><rect x="1009" y="216" width="144" height="144"/></clipPath><clipPath id="clip2"><rect x="1009" y="216" width="144" height="144"/></clipPath><clipPath id="clip3"><rect x="1009" y="216" width="144" height="144"/></clipPath><clipPath id="clip4"><rect x="1009" y="216" width="144" height="144"/></clipPath></defs><g clip-path="url(#clip0)" transform="translate(-1008 -216)"><g clip-path="url(#clip1)"><g clip-path="url(#clip2)"><g clip-path="url(#clip3)"><g clip-path="url(#clip4)"><path d="M1081 360C1081 360 1081 360 1081 360 1041.28 360 1009 327.724 1009 288 1009 248.276 1041.28 216 1081 216 1120.72 216 1153 248.276 1153 288 1153 327.724 1120.72 360 1081 360" fill="#8599A8" fill-rule="evenodd" fill-opacity="1"/><path d="M1108.18 294.968C1105.59 290.184 1107.07 284.296 1111.89 281.716 1113 280.98 1113 280.98 1113 280.98 1105.96 269.204 1105.96 269.204 1105.96 269.204 1104.85 269.572 1104.85 269.572 1104.85 269.572 1103.37 270.676 1101.89 271.044 1100.04 271.044 1094.85 271.044 1090.41 266.624 1090.41 261.472 1090.41 260 1090.41 260 1090.41 260 1075.96 260 1075.96 260 1075.96 260 1075.96 261.472 1075.96 261.472 1075.96 261.472 1075.96 262.944 1075.59 264.784 1074.48 266.256 1073 269.204 1069.67 271.044 1065.96 271.044 1064.48 271.044 1062.63 270.676 1061.15 269.572 1060.04 268.836 1060.04 268.836 1060.04 268.836 1053 280.98 1053 280.98 1053 280.98 1054.11 281.716 1054.11 281.716 1054.11 281.716 1055.59 282.452 1056.7 283.928 1057.82 285.032 1060.41 289.816 1058.56 295.704 1054.11 298.284 1053 299.02 1053 299.02 1053 299.02 1060.04 311.164 1060.04 311.164 1060.04 311.164 1061.15 310.428 1061.15 310.428 1061.15 310.428 1062.63 309.692 1064.48 308.956 1065.96 308.956 1071.52 308.956 1075.96 313.376 1075.96 318.528 1075.96 320 1075.96 320 1075.96 320 1090.04 320 1090.04 320 1090.04 320 1090.04 318.528 1090.04 318.528 1090.04 318.528 1090.04 317.056 1090.41 315.216 1091.15 313.744 1093 310.796 1096.33 308.956 1099.67 308.956 1101.52 308.956 1103.37 309.692 1104.85 310.428 1105.96 311.164 1105.96 311.164 1105.96 311.164 1113 299.02 1113 299.02 1113 299.02 1111.89 298.284 1111.89 298.284 1111.89 298.284 1110.41 297.548 1109.3 296.44 1108.18 294.968M1083 302.332C1075.96 302.332 1070.41 296.808 1070.41 289.816 1070.41 283.192 1075.96 277.668 1083 277.668 1090.04 277.668 1095.59 283.192 1095.59 289.816 1095.59 296.808 1090.04 302.332 1083 302.332" fill="#FFFFFF" fill-rule="evenodd" fill-opacity="1"/></g></g></g></g></g></svg>