<?xml version="1.0" encoding="UTF-8" standalone="no"?>
<svg
   id="svg"
   version="1.1"
   width="400"
   height="104.4776119402985"
   viewBox="0, 0, 400,104.4776119402985"
   sodipodi:docname="image2vector (1).svg"
   inkscape:version="1.1.1 (3bf5ae0d25, 2021-09-20)"
   xmlns:inkscape="http://www.inkscape.org/namespaces/inkscape"
   xmlns:sodipodi="http://sodipodi.sourceforge.net/DTD/sodipodi-0.dtd"
   xmlns="http://www.w3.org/2000/svg"
   xmlns:svg="http://www.w3.org/2000/svg">
  <defs
     id="defs7" />
  <sodipodi:namedview
     id="namedview5"
     pagecolor="#ffffff"
     bordercolor="#666666"
     borderopacity="1.0"
     inkscape:pageshadow="2"
     inkscape:pageopacity="0.0"
     inkscape:pagecheckerboard="0"
     showgrid="false"
     inkscape:zoom="3.13"
     inkscape:cx="200.15974"
     inkscape:cy="52.236422"
     inkscape:window-width="1920"
     inkscape:window-height="1001"
     inkscape:window-x="-9"
     inkscape:window-y="-9"
     inkscape:window-maximized="1"
     inkscape:current-layer="svgg" />
  <g
     id="svgg">
    <path
       id="path0"
       d="M0.470 2.056 C 1.720 5.316,61.286 100.504,63.594 102.932 C 65.375 104.806,65.672 102.671,65.672 87.959 L 65.672 70.801 87.313 35.975 C 99.216 16.820,108.955 0.890,108.955 0.574 C 108.955 0.258,103.689 0.000,97.253 0.000 L 85.551 0.000 74.865 17.191 L 64.179 34.381 64.179 50.299 L 64.179 66.216 43.661 33.108 L 23.144 -0.000 11.412 -0.000 C 2.060 -0.000,-0.159 0.417,0.470 2.056 M248.233 31.259 C 236.900 36.404,230.717 50.769,234.226 63.801 C 242.630 95.009,289.552 88.368,289.552 55.970 C 289.552 35.150,268.023 22.274,248.233 31.259 M144.776 30.371 C 144.776 35.088,167.097 82.917,169.450 83.241 C 172.089 83.605,183.079 60.285,193.382 32.463 C 194.162 30.357,193.523 29.855,190.085 29.871 C 186.006 29.890,185.469 30.772,177.720 50.133 L 169.619 70.376 161.367 50.113 C 153.541 30.897,152.899 29.851,148.945 29.851 C 146.652 29.851,144.776 30.085,144.776 30.371 M210.448 56.716 L 210.448 83.582 214.179 83.582 L 217.910 83.582 217.910 56.716 L 217.910 29.851 214.179 29.851 L 210.448 29.851 210.448 56.716 M304.478 56.716 L 304.478 83.582 320.896 83.582 L 337.313 83.582 337.313 79.851 C 337.313 76.163,337.164 76.119,324.627 76.119 L 311.940 76.119 311.940 52.985 L 311.940 29.851 308.209 29.851 L 304.478 29.851 304.478 56.716 M361.463 55.597 C 349.189 84.957,349.437 83.936,354.722 83.308 C 357.876 82.933,359.173 81.525,361.000 76.493 L 363.303 70.149 375.479 70.149 L 387.654 70.149 390.219 76.866 C 392.282 82.266,393.491 83.582,396.392 83.582 C 401.440 83.582,401.262 82.851,389.399 54.862 C 375.232 21.439,375.748 21.425,361.463 55.597 M272.347 38.781 C 278.652 42.677,282.788 51.836,281.586 59.242 C 278.529 78.081,254.278 83.760,243.982 68.048 C 232.009 49.774,253.783 27.307,272.347 38.781 M382.730 59.328 C 383.737 62.540,383.414 62.687,375.314 62.687 C 369.138 62.687,367.046 62.181,367.586 60.821 C 367.994 59.795,369.913 55.065,371.851 50.310 L 375.373 41.665 378.525 48.818 C 380.259 52.752,382.151 57.481,382.730 59.328 "
       stroke="none"
       fill="#000000"
       fill-rule="evenodd"
       style="fill:#ffffff;fill-opacity:1" />
  </g>
</svg>
