<svg xmlns="http://www.w3.org/2000/svg" width="30" height="29" viewBox="0 0 30 29">
  <path d="M29.21016,14.13495c0,7.80649 -6.32843,14.13495 -14.13487,14.13495c-7.80647,0 -14.13487,-6.32846 -14.13487,-14.13495c0,-7.80652 6.3284,-14.13495 14.13487,-14.13495c7.80644,0 14.13487,6.32844 14.13487,14.13495z" fill="#ffffff"/>
  <path d="M10.06497,10.18047c0.87567,0 1.58556,-0.71797 1.58556,-1.60363c0,-0.88566 -0.70988,-1.60363 -1.58556,-1.60363c-0.87568,0 -1.58556,0.71797 -1.58556,1.60363c0,0.88566 0.70988,1.60363 1.58556,1.60363z" fill="#00bd9d"/>
  <path d="M8.69695,20.29494h2.7356v-8.89817h-2.7356zM13.14784,20.29494h2.73126v-4.40033c0,-1.16112 0.21595,-2.28557 1.6392,-2.28557c1.40367,0 1.42106,1.3275 1.42106,2.35887v4.32777h2.73271v-4.87974c0,-2.39699 -0.51016,-4.23908 -3.27984,-4.23908c-1.32976,0 -2.2211,0.73815 -2.5856,1.43673h-0.03696v-1.21683h-2.62183z" fill="#00bd9d"/>
</svg>