<svg xmlns="http://www.w3.org/2000/svg" width="29" height="29" viewBox="0 0 29 29">
  <path d="M29.00008,14.13495c0,7.80649 -6.32843,14.13495 -14.13487,14.13495c-7.80647,0 -14.13487,-6.32846 -14.13487,-14.13495c0,-7.80652 6.3284,-14.13495 14.13487,-14.13495c7.80644,0 14.13487,6.32844 14.13487,14.13495z" fill="#ffffff"/>
  <path d="M20.10513,12.06152c0.00873,0.11884 0.00873,0.23702 0.00873,0.35519c0,3.61624 -2.72081,7.78323 -7.69317,7.78323c-1.53193,0 -2.9551,-0.44888 -4.15271,-1.2285c0.2175,0.02512 0.42695,0.03395 0.65318,0.03395c1.21708,0.00298 2.39968,-0.40873 3.3572,-1.16874c-0.56428,-0.01033 -1.11128,-0.19866 -1.56464,-0.53871c-0.45336,-0.34005 -0.79043,-0.81482 -0.96416,-1.35803c0.16715,0.02512 0.33497,0.0421 0.51086,0.0421c0.24233,0 0.48602,-0.03396 0.71225,-0.09303c-0.6124,-0.12509 -1.16305,-0.46088 -1.55836,-0.95029c-0.3953,-0.4894 -0.61084,-1.10222 -0.60996,-1.73422v-0.03396c0.36049,0.20307 0.77872,0.33005 1.22178,0.34703c-0.37118,-0.24951 -0.67552,-0.58809 -0.8859,-0.98553c-0.21038,-0.39743 -0.32023,-0.84137 -0.31977,-1.29219c0,-0.50798 0.13359,-0.97384 0.36788,-1.37995c0.67946,0.8455 1.52689,1.5372 2.48741,2.0303c0.96053,0.49309 2.01274,0.77659 3.08846,0.83213c-0.04162,-0.20373 -0.06713,-0.41493 -0.06713,-0.62681c-0.00018,-0.35927 0.06965,-0.71506 0.20547,-1.04702c0.13583,-0.33196 0.335,-0.63358 0.58612,-0.88763c0.25113,-0.25404 0.54928,-0.45553 0.87743,-0.59293c0.32815,-0.13741 0.67985,-0.20804 1.035,-0.20786c0.77872,0 1.48158,0.33005 1.97565,0.86382c0.60537,-0.11843 1.18589,-0.34198 1.71586,-0.66077c-0.20179,0.63212 -0.62447,1.16813 -1.18888,1.50762c0.53689,-0.06195 1.06162,-0.20478 1.55675,-0.42376c-0.3698,0.54538 -0.82804,1.02365 -1.35536,1.41457z" fill="#00bd9d"/>
</svg>