<?xml version="1.0" encoding="UTF-8"?>
<svg id="SVGDoc" width="100" height="52" xmlns="http://www.w3.org/2000/svg" version="1.1" xmlns:xlink="http://www.w3.org/1999/xlink" xmlns:avocode="https://avocode.com/" viewBox="0 0 100 52"><defs></defs><desc>Generated with Avocode.</desc><g><g><title>Vector</title><path d="M54.06185,23.43771c1.5293,0.037 3.0505,-0.2322 4.4741,-0.7918c1.4236,-0.5597 2.7209,-1.3984 3.8156,-2.4669c1.0947,-1.0685 1.9645,-2.3452 2.5584,-3.7548c0.594,-1.4097 0.8999,-2.924 0.8999,-4.4536c0,-1.52973 -0.3059,-3.04397 -0.8999,-4.45365c-0.5939,-1.40967 -1.4637,-2.68632 -2.5584,-3.75481c-1.0947,-1.06849 -2.392,-1.90724 -3.8156,-2.46689c-1.4236,-0.55965 -2.9448,-0.8289 -4.4741,-0.7919v2.82569c2.2964,0 4.4986,0.9122 6.1224,2.53595c1.6237,1.62374 2.5359,3.82601 2.5359,6.1223c0,2.2964 -0.9122,4.4986 -2.5359,6.1224c-1.6238,1.6237 -3.826,2.5359 -6.1224,2.5359zM54.06185,19.0214c1.878,0 3.6791,-0.7461 5.0071,-2.074c1.3279,-1.328 2.0739,-3.1291 2.0739,-5.0071c0,-1.87795 -0.746,-3.67903 -2.0739,-5.00698c-1.328,-1.32794 -3.1291,-2.07397 -5.0071,-2.07397v2.20148c1.3102,0 2.5667,0.52046 3.4931,1.44687c0.9264,0.92642 1.4469,2.1829 1.4469,3.4931c0,1.3101 -0.5205,2.5666 -1.4469,3.493c-0.9264,0.9264 -2.1829,1.4469 -3.4931,1.4469zM46.00765,20.6456c-2.2963,0 -4.4986,-0.9122 -6.1223,-2.5359c-1.6238,-1.6238 -2.536,-3.826 -2.536,-6.1224c0,-2.29629 0.9122,-4.49856 2.536,-6.1223c1.6237,-1.62375 3.826,-2.53595 6.1223,-2.53595v-2.82569c-1.5292,-0.037 -3.0504,0.23225 -4.474,0.7919c-1.4237,0.55965 -2.721,1.3984 -3.8156,2.46689c-1.0947,1.06849 -1.9646,2.34514 -2.5585,3.75481c-0.5939,1.40968 -0.8999,2.92392 -0.8999,4.45365c0,1.5296 0.306,3.0439 0.8999,4.4536c0.5939,1.4096 1.4638,2.6863 2.5585,3.7548c1.0946,1.0685 2.3919,1.9072 3.8156,2.4669c1.4236,0.5596 2.9448,0.8288 4.474,0.7918zM46.00765,16.9407c-1.3101,0 -2.5666,-0.5205 -3.493,-1.4469c-0.9264,-0.9264 -1.4469,-2.1829 -1.4469,-3.493c0,-1.3102 0.5205,-2.56668 1.4469,-3.4931c0.9264,-0.92641 2.1829,-1.44687 3.493,-1.44687v-2.20148c-1.878,0 -3.6791,0.74603 -5.007,2.07397c-1.328,1.32795 -2.074,3.12903 -2.074,5.00698c0,1.878 0.746,3.6791 2.074,5.0071c1.3279,1.3279 3.129,2.074 5.007,2.074zM10.91145,45.3318c1.3021,0 3.725,-0.7383 3.725,-6.8461c0,-6.1078 -2.4699,-6.8729 -3.7452,-6.8729c-1.27523,0 -3.71834,0.7584 -3.71834,6.8528c0,6.0943 2.44311,6.8461 3.71834,6.8461zM12.09265,38.4656c0,3.7251 -0.6174,4.6312 -1.2014,4.6312c-0.5839,0 -1.17455,-0.9061 -1.17455,-4.6312c0,-3.7251 0.59065,-4.6379 1.17455,-4.6379c0.584,0 1.2014,0.9128 1.2014,4.6379zM5.40769,45.3117c0.45387,0.0047 0.90602,-0.0563 1.34237,-0.1812v-2.1143c-0.28433,0.0635 -0.57451,0.0972 -0.86582,0.1007c-1.19471,0 -3.13444,-0.4833 -3.16129,-6.2085c0,-2.7652 1.00007,-6.3427 3.01362,-6.4165c0.49663,-0.0729 1.00361,0.0116 1.44976,0.2416v-2.1612c-0.43413,-0.2168 -0.9189,-0.3119 -1.40277,-0.2752c-2.53708,-0.0402 -5.72521,2.5707 -5.72521,8.6113c0,7.3764 3.35592,8.4234 5.36948,8.4234zM41.22885,31.7604v9.598c0,0.9329 -0.4094,1.7451 -0.9934,1.7451c-0.5839,0 -1.0202,-0.8122 -1.0202,-1.7451v-9.6181h-2.4901v8.8865c0,3.2016 1.7451,4.6983 3.7788,4.6983c1.9196,0 3.2821,-2.0136 3.2821,-4.6983v-8.8865zM99.98435,33.9686v-2.2082h-0.45641c-0.39869,-0.0082 -0.7929,0.0855 -1.14529,0.2723c-0.3524,0.1867 -0.6512,0.4604 -0.8682,0.7949v-1.0672h-2.3962v13.4238h2.5237v-8.6248c0,-1.5907 0.8658,-2.584 2.0672,-2.584zM89.81595,40.4926c1.1485,-0.2265 2.181,-0.8492 2.9171,-1.7595c0.7361,-0.9103 1.1289,-2.0502 1.11,-3.2207c0,-2.8391 -1.6109,-3.8795 -3.0338,-3.8795c-1.4229,0 -3.6445,0.8591 -3.6445,6.826c0,5.7587 2.39611,6.8796 4.2083,6.8796c0.3251,-0.0002 0.6493,-0.0362 0.9665,-0.1074v-2.0135c-0.2519,0.0486 -0.5089,0.0666 -0.7651,0.0537c-0.839,0 -1.631,-0.745 -1.7585,-2.7586zM90.78915,33.6867c0.4564,0 0.7114,0.4699 0.7114,1.6914c0,1.8257 -1.047,2.9935 -1.7853,3.0472c-0.016,-0.2234 -0.016,-0.4477 0,-0.6712c0,-3.3089 0.5101,-4.0875 1.094,-4.0875zM85.51365,45.2043c0.2901,-0.0018 0.5796,-0.0265 0.8658,-0.0738v-2.1076c-0.1931,0.0321 -0.3883,0.05 -0.5839,0.0537c-0.8592,0 -1.5303,-0.6712 -1.5303,-2.6847v-6.4367h1.8457v-2.2149h-1.9397v-3.5036h-2.3961v3.4499h-0.8659v2.2149h0.8323v6.0407c0,4.4835 2.376,5.2084 3.7788,5.2084zM80.04345,45.1842v-8.8463c0,-3.2149 -1.3491,-4.6983 -3.517,-4.6983c-0.1427,-0.0169 -0.2869,-0.0169 -0.4296,0l-0.792,0.8055v-0.6847h-2.3156v13.4238h2.5506v-9.6114c0,-0.933 0.396,-1.7451 0.9866,-1.7451c0.5906,0 1.0001,0.8121 1.0001,1.7451v9.5778zM67.68695,40.4523c1.1479,-0.2277 2.1797,-0.8507 2.9155,-1.7607c0.7359,-0.91 1.1292,-2.0493 1.1116,-3.2195c0,-2.8391 -1.6041,-3.8795 -3.0338,-3.8795c-1.4296,0 -3.6445,0.8592 -3.6445,6.826c0,5.7588 2.3961,6.8796 4.2016,6.8796c0.3274,-0.0003 0.6537,-0.0363 0.9732,-0.1073v-2.0136c-0.2519,0.0484 -0.5088,0.0664 -0.7651,0.0537c-0.839,0 -1.631,-0.745 -1.7585,-2.7586zM68.62655,33.6666c0.4565,0 0.7115,0.4698 0.7115,1.6914c0,1.8256 -1.0403,2.9935 -1.7786,3.0472c-0.016,-0.2235 -0.016,-0.4478 0,-0.6712c0,-3.309 0.5101,-4.0875 1.094,-4.0875zM63.46515,45.3184c0.4099,0.0069 0.81929,-0.0291 1.2216,-0.1074v-2.0136c-0.2614,0.0455 -0.5269,0.0635 -0.792,0.0537c-0.839,0 -2.2955,-0.7785 -2.2955,-4.7654c0,-3.9868 1.4565,-4.7654 2.2955,-4.7654c0.2504,-0.019 0.5021,-0.0145 0.7517,0.0134v-2.0135c-0.393,-0.0798 -0.7937,-0.1159 -1.1947,-0.1074c-1.0537,0 -4.4097,0.7316 -4.4097,6.8528c0,6.1212 3.3895,6.8528 4.4097,6.8528zM57.90775,45.1842v-9.6651c0,-2.9667 -1.4229,-3.9063 -3.3559,-3.9063c-0.6277,-0.009 -1.2535,0.07 -1.8592,0.2349v2.1075c0.5282,-0.1625 1.0784,-0.2417 1.631,-0.2349c0.146,-0.0127 0.2929,0.0071 0.4304,0.0579c0.1374,0.0507 0.2619,0.1313 0.3645,0.2359c0.1027,0.1045 0.1809,0.2305 0.2291,0.3689c0.0483,0.1383 0.0653,0.2856 0.0499,0.4313v0.2618c-1.094,0.1544 -4.1077,1.6712 -4.1077,5.8393c0,2.5505 1.4565,4.403 3.0606,4.403c0.1298,0.0052 0.2594,-0.013 0.3826,-0.0537l0.8524,-0.886v0.8055zM55.40425,42.4256c-0.094,0.3087 -0.3356,0.7517 -0.7651,0.7517c-0.4296,0 -0.9196,-0.651 -0.9196,-2.2619c0,-2.5304 1.2484,-3.6781 1.6847,-3.7251zM49.57835,45.2043c0.2902,-0.0012 0.5797,-0.0259 0.8658,-0.0738v-2.1076c-0.193,0.0325 -0.3882,0.0504 -0.5839,0.0537c-0.8591,0 -1.5303,-0.6712 -1.5303,-2.6847v-6.4367h1.8391v-2.2149h-1.9398v-3.5036h-2.3961v3.4835h-0.8658v2.2149h0.8054v6.0406c0,4.4836 2.3693,5.2085 3.7721,5.2085zM31.21475,45.1842c1.1544,-0.1813 4.6983,-1.5639 4.6983,-7.5039c0,-4.2956 -1.7115,-6.0407 -3.7251,-6.0407c-0.1094,-0.0104 -0.2195,-0.0104 -0.3289,0l-0.7651,0.8055v-0.7048h-2.3693v19.7597h2.517v-6.3158zM32.06045,33.7472c0.7182,0 1.3021,1.3289 1.3021,3.47c0,3.96 -1.1477,5.3896 -2.1142,5.7252v-8.4905c0.1006,-0.3155 0.4832,-0.7316 0.8121,-0.7316zM27.37555,45.1842v-8.8731c0,-3.215 -1.3759,-4.6983 -3.517,-4.6983c-0.4198,-0.0182 -0.8384,0.0566 -1.226,0.2191c-0.3875,0.1624 -0.7344,0.4085 -1.0157,0.7205c-0.6077,-0.5893 -1.4221,-0.917 -2.2686,-0.9128c-0.145,-0.0169 -0.2914,-0.0169 -0.4363,0l-0.7853,0.8055v-0.6847h-2.3223v13.4238h2.5035v-9.6114c0,-0.933 0.4363,-1.7451 1.0202,-1.7451c0.5839,0 0.9934,0.8121 0.9934,1.7451v9.6114h2.5236v-9.6114c0,-0.933 0.4363,-1.7451 1.0202,-1.7451c0.584,0 0.9934,0.8121 0.9934,1.7451v9.6114zM52.90075,3.65121c-0.0013,0.56655 -0.1706,1.11999 -0.4863,1.59041c-0.3157,0.47042 -0.7638,0.83672 -1.2876,1.05261c-0.5238,0.21588 -1.0998,0.27168 -1.6553,0.16034c-0.5555,-0.11134 -1.0655,-0.38482 -1.4657,-0.7859c-0.4001,-0.40108 -0.6724,-0.91175 -0.7824,-1.46751c-0.1101,-0.55576 -0.0529,-1.13166 0.1642,-1.65496c0.2171,-0.52329 0.5844,-0.9705 1.0556,-1.28512c0.4711,-0.31462 1.025,-0.48254 1.5915,-0.48254c0.377,0 0.7502,0.07435 1.0983,0.2188c0.3482,0.14445 0.6644,0.35615 0.9306,0.62299c0.2663,0.26684 0.4772,0.58358 0.6209,0.93207c0.1436,0.34849 0.2171,0.72189 0.2162,1.09881" fill="#3e3e3e" fill-opacity="1"></path></g></g></svg>