<?xml version="1.0" encoding="UTF-8"?>
<svg id="SVGDoc" width="54" height="54" xmlns="http://www.w3.org/2000/svg" version="1.1" xmlns:xlink="http://www.w3.org/1999/xlink" xmlns:avocode="https://avocode.com/" viewBox="0 0 54 54"><defs></defs><desc>Generated with Avocode.</desc><g><g><title>Vector</title><path d="M43.008,29.1999h3.9912v3.4022h-7.995v-11.6263h4.0038zM29.9547,28.5604l-6.5804,5.244l-6.0183,-4.79c-0.4486,1.067 -1.1988,1.9757 -2.1562,2.6118c-0.9574,0.6361 -2.0793,0.9712 -3.2243,0.9631h-5.14685v-11.6135h5.14685c1.1483,-0.0116 2.2739,0.3242 3.2325,0.9646c0.9586,0.6403 1.7065,1.5559 2.148,2.6295l6.0183,-4.7899l2.2229,1.7842l-5.5131,4.387l1.061,0.8442l5.5257,-4.3999l2.2292,1.7715l-5.5131,4.3934l1.061,0.8377l5.5194,-4.3934v-4.0289h3.9975v8.2241h3.9911v3.4022h-8.0012zM14.0405,26.7826c0.0202,-0.3345 -0.0309,-0.6695 -0.1499,-0.9821c-0.119,-0.3127 -0.3031,-0.5957 -0.5398,-0.8299c-0.2366,-0.2342 -0.5203,-0.4141 -0.8318,-0.5274c-0.3114,-0.1132 -0.6432,-0.1573 -0.973,-0.1291h-0.8651v4.9242h0.8651c1.3578,0 2.5261,-0.7483 2.5261,-2.4685zM26.6708,0c5.2731,0 10.4277,1.58336 14.8122,4.54988c4.3845,2.96651 7.8019,7.18292 9.8201,12.11622c2.0182,4.9332 2.5466,10.3617 1.5183,15.599c-1.0282,5.2373 -3.567,10.0482 -7.2951,13.8245c-3.7282,3.7763 -8.4784,6.3483 -13.65,7.3908c-5.1716,1.0425 -10.5324,0.5088 -15.4044,-1.5338c-4.8721,-2.0426 -9.03662,-5.5023 -11.96709,-9.9416c-2.93047,-4.4392 -4.49526,-9.6588 -4.49651,-14.9986c0,-7.1614 2.80887,-14.0297 7.80888,-19.09415c5.00002,-5.0645 11.78172,-7.91055 18.85362,-7.91225zM26.6708,2.92255c-5.4995,0.00429 -10.8274,1.93952 -15.0758,5.47593c-4.24844,3.53642 -7.15451,8.45522 -8.22305,13.91812c-1.06854,5.463 -0.23343,11.1322 2.36303,16.0416c2.59646,4.9093 6.79362,8.7551 11.87622,10.8819c5.0827,2.1269 10.7364,2.4032 15.9977,0.782c5.2613,-1.6212 9.8047,-5.0397 12.856,-9.673c3.0514,-4.6333 4.4218,-10.1947 3.8778,-15.7365c-0.544,-5.5418 -2.9687,-10.7211 -6.861,-14.65547c-2.2064,-2.23612 -4.8274,-4.00871 -7.7123,-5.21593c-2.885,-1.20722 -5.9771,-1.82528 -9.0986,-1.81865z" fill="#3e3e3e" fill-opacity="1"></path></g></g></svg>