<?xml version="1.0" encoding="UTF-8"?>
<svg id="SVGDoc" width="105" height="20" xmlns="http://www.w3.org/2000/svg" version="1.1" xmlns:xlink="http://www.w3.org/1999/xlink" xmlns:avocode="https://avocode.com/" viewBox="0 0 105 20"><defs></defs><desc>Generated with Avocode.</desc><g><g><title>Vector</title><path d="M22.2363,10.5922c0.0075,-0.65045 0.2441,-1.27636 0.6664,-1.76287c0.1929,-0.18737 0.4204,-0.33363 0.6691,-0.43027c0.2487,-0.09665 0.5137,-0.14175 0.7796,-0.13267c0.2723,-0.00871 0.5432,0.04382 0.7936,0.15389c0.2503,0.11007 0.4739,0.27499 0.6551,0.48312c0.3862,0.47247 0.5898,1.07328 0.5722,1.6888zM96.1183,6.55533c1.1517,1.14811 1.7239,2.80732 1.7239,4.96277v2.2222h-8.6196c0.0077,0.3704 0.0955,0.7346 0.257,1.0663c0.1616,0.3317 0.3929,0.6227 0.6774,0.8521c0.6196,0.4905 1.3906,0.7376 2.173,0.6963c0.7868,0.008 1.5718,-0.0765 2.3396,-0.2518c0.53251,-0.1276 1.0535,-0.3011 1.5574,-0.5185l0.7243,3.2961c-0.73,0.3942 -1.5138,0.6738 -2.3251,0.8296c-0.9566,0.17 -1.9265,0.2494 -2.8973,0.2371c-2.3324,0 -4.1287,-0.6444 -5.4181,-1.9407c-1.2893,-1.2963 -1.9339,-3.0592 -1.9339,-5.5331c0,-2.47404 0.5939,-4.37027 1.7891,-5.68874c1.1951,-1.31848 2.8901,-1.97771 5.1065,-1.97771c0.8823,-0.05848 1.7671,0.06336 2.6029,0.35841c0.8357,0.29505 1.6056,0.7574 2.2646,1.36005zM93.489,10.5626c0.0142,-0.61502 -0.1889,-1.21467 -0.5722,-1.68883c-0.1818,-0.20733 -0.4056,-0.37171 -0.6558,-0.48172c-0.2501,-0.11 -0.5207,-0.16299 -0.7929,-0.15529c-0.266,-0.00991 -0.53131,0.0348 -0.7801,0.13149c-0.2488,0.09669 -0.4761,0.2434 -0.6686,0.43145c-0.4278,0.48364 -0.6674,1.11081 -0.6736,1.7629zM80.9363,15.9846c0.7978,-0.0278 1.5847,-0.1982 2.3251,-0.5036v3.7035c-0.5944,0.2751 -1.21609,0.4837 -1.8543,0.6222c-0.67989,0.1362 -1.3716,0.2007 -2.0643,0.1926c-1.6177,0 -2.7839,-0.4148 -3.4986,-1.2444c-0.7975,-1.1023 -1.1783,-2.4625 -1.072,-3.8295v-6.08126h-1.6877v-3.77764h1.6877v-3.79247l4.853,-0.80738v4.59985h3.0785v3.77764h-3.0785v5.69616c0,0.9407 0.4419,1.4147 1.3111,1.4147zM69.7816,15.955c0.7976,-0.0291 1.5843,-0.1996 2.3251,-0.5037v3.7036c-0.5944,0.2751 -1.21609,0.4837 -1.85429,0.6222c-0.6799,0.1361 -1.3716,0.2007 -2.0644,0.1926c-1.6128,0 -2.77901,-0.4148 -3.4985,-1.2444c-0.7976,-1.1024 -1.1783,-2.4625 -1.072,-3.8295v-6.05166h-1.6877v-3.77764h1.6877v-3.70358l4.853,-0.86664v4.59985h3.0784v3.77764h-3.0784v5.69613c0,0.9407 0.4346,1.4147 1.3111,1.4147zM55.179,0h4.8168v3.29619h-4.8168zM55.179,5.0665h4.8168v14.6217h-4.8168zM53.3102,12.3551c0,2.3851 -0.6157,4.2493 -1.847,5.5924c-0.6726,0.6876 -1.4798,1.2219 -2.3687,1.5679c-0.8888,0.3459 -1.8391,0.4957 -2.7886,0.4395c-0.9392,0.0463 -1.8772,-0.1128 -2.7516,-0.4666c-0.8743,-0.3538 -1.6648,-0.8942 -2.3187,-1.5852c-1.3106,-1.5278 -1.9863,-3.5184 -1.8833,-5.548c0,-2.38507 0.6157,-4.23933 1.8471,-5.56274c0.6784,-0.68185 1.4893,-1.21027 2.3803,-1.55098c0.8909,-0.34071 1.842,-0.48609 2.7914,-0.42673c1.2653,-0.02602 2.5149,0.29087 3.6217,0.91849c1.0524,0.60154 1.9012,1.516 2.4337,2.62213c0.5963,1.24352 0.8919,2.61523 0.862,3.99983zM44.2343,12.3477c-0.0488,0.9799 0.1144,1.9587 0.4781,2.8666c0.1409,0.3115 0.3705,0.5722 0.6587,0.748c0.2882,0.1757 0.6216,0.2584 0.9566,0.2372c0.3347,0.0261 0.6692,-0.0547 0.9572,-0.2311c0.288,-0.1765 0.5154,-0.4399 0.6508,-0.7541c0.3483,-0.9119 0.5038,-1.8888 0.4563,-2.8666c0.0545,-0.9661 -0.1014,-1.9325 -0.4563,-2.8295c-0.1594,-0.28979 -0.3914,-0.53098 -0.6721,-0.69883c-0.2806,-0.16785 -0.5999,-0.25632 -0.9251,-0.25632c-0.3251,0 -0.6444,0.08847 -0.9251,0.25632c-0.2807,0.16785 -0.5126,0.40904 -0.672,0.69883c-0.368,0.8962 -0.5315,1.8664 -0.4781,2.8369zM32.645,0h4.8168v19.6882h-4.8168zM15.8767,9.46635c0,3.27395 -0.8619,5.79485 -2.5859,7.56275c-1.7239,1.7678 -4.13832,2.6542 -7.24329,2.6591h-6.06991v-19.60672h6.47554c3.00839,0 5.32866,0.80491 6.96086,2.41473c1.6321,1.60982 2.4506,3.9332 2.4555,6.97014zM10.618,9.6293c0,-1.8024 -0.3404,-3.13569 -1.02126,-3.99986c-0.38107,-0.44763 -0.85919,-0.79796 -1.3962,-1.02303c-0.53701,-0.22506 -1.11804,-0.31863 -1.6967,-0.27322h-1.44867v11.00701h1.12272c0.62938,0.0525 1.26202,-0.0468 1.84702,-0.29c0.585,-0.2431 1.10601,-0.6233 1.52113,-1.1099c0.71946,-0.9333 1.07926,-2.3604 1.07926,-4.28137zM99.0446,17.1624c0,-0.5611 0.1627,-1.1096 0.4676,-1.5761c0.3048,-0.4666 0.7384,-0.8302 1.2454,-1.0449c0.506,-0.2147 1.064,-0.2709 1.60201,-0.1614c0.53899,0.1094 1.033,0.3796 1.421,0.7764c0.388,0.3967 0.652,0.9022 0.759,1.4525c0.107,0.5503 0.052,1.1208 -0.158,1.6391c-0.21,0.5184 -0.565,0.9615 -1.022,1.2732c-0.456,0.3117 -0.992,0.4781 -1.541,0.4781c-0.36401,0 -0.72501,-0.0734 -1.061,-0.2159c-0.337,-0.1426 -0.643,-0.3516 -0.9004,-0.615c-0.2577,-0.2634 -0.462,-0.5762 -0.6014,-0.9204c-0.1394,-0.3442 -0.2112,-0.7131 -0.2112,-1.0856zM29.0306,6.55533c-0.6602,-0.60321 -1.4313,-1.06586 -2.2683,-1.36092c-0.837,-0.29505 -1.723,-0.4166 -2.6065,-0.35754c-2.2116,0 -3.9017,0.65924 -5.0703,1.97772c-1.1951,1.33328 -1.7891,3.18507 -1.7891,5.65911c0,2.4739 0.6447,4.2368 1.9267,5.5331c1.2821,1.2963 3.0929,1.9407 5.418,1.9407c0.9709,0.0126 1.9408,-0.0667 2.8974,-0.2371c0.799,-0.1588 1.5704,-0.4384 2.2889,-0.8296l-0.7244,-3.3258c-0.5014,0.2174 -1.0199,0.3908 -1.55,0.5185c-0.768,0.175 -1.5529,0.2595 -2.3396,0.2519c-0.7821,0.038 -1.552,-0.2087 -2.173,-0.6963c-0.2689,-0.2383 -0.4843,-0.5329 -0.6318,-0.864c-0.1475,-0.331 -0.2235,-0.6907 -0.223,-1.0545h8.5906v0v-2.2221c0,-2.15548 -0.5722,-3.81468 -1.7166,-4.96279" fill="#3e3e3e" fill-opacity="1"></path></g></g></svg>