<?xml version="1.0" encoding="UTF-8"?>
<svg id="SVGDoc" width="48" height="48" xmlns="http://www.w3.org/2000/svg" version="1.1" xmlns:xlink="http://www.w3.org/1999/xlink" xmlns:avocode="https://avocode.com/" viewBox="0 0 48 48"><defs></defs><desc>Generated with Avocode.</desc><g><g><title>Vector</title><path d="M38.20183,16.635h-3.7733l-5.2849,14.6846h3.7733zM23.86443,48c6.2851,0 12.3127,-2.5286 16.7569,-7.0294c4.4442,-4.5009 6.9409,-10.6054 6.9409,-16.9706c0,-6.3652 -2.4967,-12.4697 -6.9409,-16.97056c-4.4442,-4.50088 -10.4718,-7.02944 -16.7569,-7.02944c-0.3583,0 -0.711,0 -1.0637,0l-4.8481,13.4883h4.2323c2.5025,0 3.8517,1.9674 2.9951,4.36l-5.9622,16.618h-5.0385l6.4157,-17.8143h-3.7733l-6.3933,17.8143h-5.03853l7.53533,-20.978l4.5403,-12.6265c-5.0551,1.43564 -9.49649,4.53032 -12.62733,8.79846c-3.13085,4.26814 -4.77393,9.46814 -4.67145,14.78424c0.10248,5.316 1.94474,10.4471 5.2377,14.5882c3.29296,4.1411 7.85028,7.0579 12.95678,8.2926l4.3835,-12.2353l7.7761,-21.6187h9.2485c2.5137,0 3.8685,1.9617 3.0063,4.3544l-5.2512,14.6165c-0.2396,0.5754 -0.6346,1.0706 -1.1397,1.4287c-0.5051,0.358 -1.0997,0.5644 -1.7155,0.5954h-6.6676l-4.8426,13.511c0.2351,0 0.4703,0 0.7054,0z" fill="#3e3e3e" fill-opacity="1"></path></g></g></svg>