<?xml version="1.0" encoding="UTF-8"?>
<svg id="SVGDoc" width="78" height="40" xmlns="http://www.w3.org/2000/svg" version="1.1" xmlns:xlink="http://www.w3.org/1999/xlink" xmlns:avocode="https://avocode.com/" viewBox="0 0 78 40"><defs></defs><desc>Generated with Avocode.</desc><g><g><title>Vector</title><path d="M72.10635,32.1593c0.00111,0.1701 -0.0485,0.3367 -0.1424,0.4786c-0.0939,0.1419 -0.22791,0.2527 -0.3849,0.3183c-0.157,0.0655 -0.3299,0.083 -0.49689,0.05c-0.1669,-0.0329 -0.32021,-0.1147 -0.44051,-0.2351c-0.1204,-0.1203 -0.20219,-0.2736 -0.2351,-0.4406c-0.033,-0.1669 -0.0155,-0.3398 0.05,-0.4968c0.0656,-0.157 0.1764,-0.291 0.3183,-0.3849c0.1419,-0.0939 0.3085,-0.1435 0.4786,-0.1424c0.2258,0.004 0.4409,0.0969 0.5986,0.2585c0.1578,0.1616 0.2455,0.3788 0.2441,0.6047zM70.56496,32.1593c0.002,0.1326 0.0432,0.2618 0.1184,0.3711c0.0752,0.1093 0.181,0.194 0.3042,0.2434c0.1231,0.0493 0.2581,0.0612 0.388,0.0341c0.1299,-0.0271 0.2489,-0.092 0.342,-0.1866c0.09309,-0.0945 0.1562,-0.2144 0.1813,-0.3447c0.0252,-0.1303 0.0112,-0.2651 -0.04,-0.3875c-0.0512,-0.1224 -0.1375,-0.2269 -0.2479,-0.3004c-0.1105,-0.0735 -0.2402,-0.1128 -0.37289,-0.1128c-0.091,-0.0014 -0.1814,0.0156 -0.2656,0.0501c-0.0842,0.0345 -0.1606,0.0857 -0.2245,0.1505c-0.0639,0.0649 -0.1139,0.142 -0.14709,0.2267c-0.0333,0.0848 -0.049,0.1754 -0.0462,0.2664zM71.27406,31.6763c0.1798,0 0.3442,0.0771 0.3442,0.2672c0.002,0.0499 -0.0118,0.0991 -0.0395,0.1406c-0.0277,0.0416 -0.0678,0.0733 -0.1146,0.0906c0.0441,0.0166 0.0815,0.0472 0.1065,0.0871c0.0251,0.0399 0.0364,0.0869 0.0322,0.1338c-0.00401,0.0783 0.0064,0.1567 0.0308,0.2312h-0.2312c-0.0175,-0.0742 -0.0278,-0.1499 -0.0308,-0.226c0,-0.0566 0,-0.1388 -0.1696,-0.1388h-0.0976v0.3648h-0.2363v-0.9402zM71.10445,31.8407v0.2672h0.1182c0.0209,0.0043 0.0426,0.0035 0.0631,-0.0023c0.0206,-0.0058 0.0395,-0.0164 0.0551,-0.031c0.0156,-0.0146 0.0275,-0.0327 0.0346,-0.0528c0.0072,-0.0202 0.0094,-0.0417 0.0065,-0.0629c0,-0.1182 -0.0976,-0.1182 -0.149,-0.1182zM70.99656,29.7855c-0.3978,0.9671 -1.0648,1.7999 -1.9216,2.3995c-0.7828,0.5573 -1.7212,0.854 -2.6821,0.8478c-0.99931,0.0171 -1.981,-0.2651 -2.8186,-0.8103c-0.8377,-0.5451 -1.4932,-1.3284 -1.8821,-2.2491c-0.389,-0.9207 -0.4936,-1.9367 -0.3005,-2.9174c0.1931,-0.9806 0.6751,-1.8811 1.384,-2.5856c0.709,-0.7045 1.6125,-1.1809 2.5943,-1.3678c0.9818,-0.1869 1.9971,-0.0759 2.9154,0.3189c0.91821,0.3947 1.6974,1.055 2.2373,1.8961c0.5399,0.8411 0.8159,1.8245 0.7925,2.8237c0.00301,0.25 -0.01929,0.4996 -0.0668,0.745h-7.0546c0.0819,0.5168 0.3527,0.9847 0.76,1.3131c0.4072,0.3285 0.9219,0.4941 1.4442,0.4647c0.3368,0.0092 0.6705,-0.0665 0.9704,-0.22c0.2998,-0.1535 0.5563,-0.38 0.7457,-0.6586zM68.49946,26.9904c-0.1355,-0.4626 -0.4173,-0.8689 -0.8031,-1.1579c-0.3858,-0.289 -0.8549,-0.4452 -1.3369,-0.4452c-0.4821,0 -0.9511,0.1562 -1.3369,0.4452c-0.3858,0.289 -0.6676,0.6953 -0.8031,1.1579zM60.60226,31.5941c0,1.4027 -0.1028,2.3019 -0.5601,3.0828c-0.7399,1.2126 -2.456,2.2402 -4.7835,2.2402c-3.2781,0 -4.5164,-1.9627 -4.7014,-3.2986h3.2576c0.1559,0.2976 0.3946,0.5437 0.6872,0.7087c0.2927,0.165 0.6268,0.2418 0.9621,0.2213c0.3545,0 2.2916,-0.036 2.2916,-2.5691v-0.2877h-0.0463c-0.2687,0.4329 -0.6491,0.7854 -1.1012,1.0205c-0.452,0.2351 -0.9591,0.344 -1.4678,0.3154c-2.5691,0 -4.7527,-1.9268 -4.7527,-4.9428c0,-3.2165 2.307,-5.061 4.7527,-5.061c0.4929,-0.0297 0.9855,0.0632 1.4338,0.2703c0.4483,0.2071 0.8383,0.522 1.1352,0.9166h0.036v-0.8735h2.8208zM55.46416,30.4072c0.3079,0.0102 0.6146,-0.0433 0.9008,-0.1573c0.2862,-0.1139 0.5458,-0.2858 0.7625,-0.5049c0.2166,-0.219 0.3856,-0.4805 0.4964,-0.768c0.1108,-0.2875 0.1609,-0.5947 0.1473,-0.9025c0.0221,-0.3126 -0.021,-0.6264 -0.1266,-0.9215c-0.1057,-0.2951 -0.2715,-0.5649 -0.487,-0.7925c-0.2154,-0.2276 -0.4759,-0.4079 -0.7648,-0.5294c-0.2888,-0.1215 -0.5998,-0.1817 -0.9132,-0.1766c-0.6111,0.0284 -1.1878,0.2912 -1.6103,0.7337c-0.4224,0.4426 -0.6581,1.0308 -0.6581,1.6426c0,0.6118 0.2357,1.2001 0.6581,1.6426c0.4225,0.4426 0.9992,0.7054 1.6103,0.7338zM49.45256,32.7039h-2.8208v-1.0276h-0.0359c-0.4727,0.9146 -1.6442,1.3359 -2.7489,1.3359c-2.9904,0 -4.7373,-2.3327 -4.7373,-5.025c0,-3.0829 2.2248,-5.0097 4.7373,-5.0097c1.5414,0 2.4097,0.745 2.7489,1.3205h0.0359v-0.9608h2.8208zM44.27336,30.4021c0.4767,0.0102 0.9456,-0.1222 1.3466,-0.3802c0.401,-0.2579 0.7159,-0.6297 0.9043,-1.0677c0.1883,-0.4381 0.2416,-0.9224 0.153,-1.3909c-0.0886,-0.4685 -0.315,-0.8999 -0.6503,-1.2388c-0.3354,-0.339 -0.7643,-0.5702 -1.2318,-0.6639c-0.4675,-0.0937 -0.9523,-0.0457 -1.3924,0.1379c-0.44,0.1836 -0.8152,0.4943 -1.0776,0.8925c-0.2623,0.3982 -0.3997,0.8656 -0.3947,1.3424c-0.0097,0.3127 0.0438,0.6242 0.1575,0.9157c0.1137,0.2915 0.285,0.557 0.5039,0.7806c0.2188,0.2236 0.4805,0.4007 0.7695,0.5207c0.289,0.1199 0.5992,0.1803 0.912,0.1773zM33.62216,23.3372h2.6512v0.9968h0.036c0.2364,-0.4573 0.7296,-1.3205 2.3584,-1.3205v2.8259c-1.3051,0.036 -2.2248,0.3032 -2.2248,1.7264v5.1381h-2.8208zM27.64656,23.0289c1.3245,0 2.5948,0.5262 3.5314,1.4628c0.9366,0.9366 1.4628,2.2069 1.4628,3.5314c0,1.3246 -0.5262,2.5949 -1.4628,3.5315c-0.9366,0.9366 -2.2069,1.4627 -3.5314,1.4627c-1.3246,0 -2.5949,-0.5261 -3.5315,-1.4627c-0.9366,-0.9366 -1.4627,-2.2069 -1.4627,-3.5315c0,-1.3245 0.5261,-2.5948 1.4627,-3.5314c0.9366,-0.9366 2.2069,-1.4628 3.5315,-1.4628zM27.64656,30.3918c0.474,0.0236 0.9443,-0.0954 1.35,-0.3417c0.4057,-0.2463 0.7283,-0.6085 0.926,-1.04c0.1978,-0.4314 0.2617,-0.9123 0.1835,-1.3804c-0.0782,-0.4681 -0.295,-0.9021 -0.6223,-1.2458c-0.3273,-0.3437 -0.7501,-0.5814 -1.2139,-0.6824c-0.4637,-0.101 -0.9471,-0.0607 -1.3877,0.1158c-0.4406,0.1765 -0.8182,0.4809 -1.084,0.8741c-0.2658,0.3932 -0.4077,0.8571 -0.4072,1.3317c-0.0103,0.3044 0.0402,0.6077 0.1485,0.8923c0.1083,0.2847 0.2722,0.5448 0.4822,0.7654c0.21,0.2205 0.4619,0.397 0.7409,0.519c0.279,0.1221 0.5795,0.1874 0.884,0.192zM20.92596,23.3423h1.3564v2.1323h-1.341v7.255h-2.7951v-7.2601h-1.4181v-2.1323h1.4181v-3.1342h2.8208zM12.53546,23.8613c-0.0668,-0.4265 -0.1696,-1.2178 -1.1561,-1.2178c-0.1375,-0.0104 -0.2756,0.0069 -0.4063,0.0509c-0.1306,0.0441 -0.25108,0.114 -0.35416,0.2056c-0.10307,0.0915 -0.18667,0.2029 -0.2458,0.3274c-0.05914,0.1246 -0.0926,0.2598 -0.09841,0.3975c0,0.745 0.33911,0.894 2.59987,1.9114c2.343,1.0276 2.9338,2.1323 2.9338,3.5966c0,1.8292 -1.0276,3.8433 -4.3776,3.8433c-3.63263,0 -4.53179,-2.3686 -4.53179,-3.9768v-0.406h3.19075c0,1.4541 0.89914,1.711 1.30504,1.711c0.1597,0.0014 0.3181,-0.0288 0.466,-0.0888c0.148,-0.06 0.2827,-0.1487 0.3963,-0.2609c0.1136,-0.1122 0.204,-0.2457 0.2658,-0.3929c0.0619,-0.1472 0.0941,-0.3051 0.0948,-0.4648c0,-0.8273 -0.5138,-1.0276 -2.46115,-1.8446c-0.88375,-0.3545 -3.08285,-1.2331 -3.08285,-3.5967c0,-2.3635 2.30186,-3.6942 4.3931,-3.6942c0.6345,-0.0166 1.2654,0.1017 1.8509,0.347c0.5855,0.2453 1.1122,0.6122 1.5453,1.0762c0.561,0.6995 0.8559,1.5751 0.8324,2.4714zM63.96256,15.0803c-0.2877,1.2036 -1.0064,2.26 -2.0202,2.9696c-1.0138,0.7097 -2.2525,1.0232 -3.4818,0.8815c-1.2293,-0.1417 -2.3641,-0.7289 -3.1899,-1.6506c-0.8257,-0.9217 -1.2852,-2.114 -1.2914,-3.3514c0.0192,-1.235 0.4906,-2.42 1.3251,-3.3306c0.8344,-0.91055 1.9739,-1.48343 3.2024,-1.61009c1.2286,-0.12665 2.461,0.20171 3.4636,0.92289c1.0027,0.7212 1.706,1.7851 1.9768,2.9901h-2.8517c-0.1648,-0.405 -0.4506,-0.7492 -0.8185,-0.9856c-0.3679,-0.2364 -0.7998,-0.3533 -1.2367,-0.3349c-1.341,-0.0667 -2.2402,1.0277 -2.2402,2.3841c-0.0228,0.307 0.0184,0.6154 0.121,0.9056c0.1025,0.2903 0.2642,0.5561 0.4747,0.7807c0.2106,0.2245 0.4655,0.403 0.7485,0.524c0.2831,0.121 0.5882,0.1819 0.896,0.1789c0.428,0.0168 0.8514,-0.0932 1.217,-0.3163c0.3657,-0.223 0.6573,-0.5491 0.8382,-0.9374zM53.08526,8.2569h-2.826v-2.1323h2.826zM53.08526,18.6513h-2.826v-9.39247h2.826zM46.40566,6.12974h2.8208v12.52156h-2.8208zM35.33316,6.14001h2.8208v3.87929c0.3569,-0.35749 0.7842,-0.63702 1.2547,-0.82097c0.4705,-0.18395 0.974,-0.26832 1.4787,-0.24778c1.9679,0 4.6243,1.40785 4.6243,4.95825c0,3.386 -2.3584,5.0816 -4.7527,5.0816c-0.5258,0.029 -1.0502,-0.0771 -1.5233,-0.3083c-0.4731,-0.2311 -0.8791,-0.5796 -1.1793,-1.0122h-0.0309v0.9968h-2.6923zM40.34276,16.3648c0.635,0.0068 1.2467,-0.2389 1.7006,-0.6831c0.4538,-0.4442 0.7126,-1.0505 0.7194,-1.6856c0.0069,-0.635 -0.2389,-1.2467 -0.6831,-1.7005c-0.4442,-0.4539 -1.0505,-0.7127 -1.6855,-0.7195c-0.3111,-0.0042 -0.6197,0.0543 -0.9076,0.1722c-0.2879,0.1179 -0.549,0.2926 -0.7678,0.5137c-0.2187,0.2212 -0.3906,0.4842 -0.5053,0.7733c-0.1147,0.2892 -0.1699,0.5985 -0.1623,0.9095c-0.0182,0.3117 0.0276,0.6239 0.1346,0.9172c0.107,0.2934 0.273,0.5617 0.4877,0.7885c0.2147,0.2267 0.4736,0.4071 0.7607,0.5299c0.2871,0.1229 0.5963,0.1856 0.9086,0.1844zM34.30556,18.6513h-2.6564v-0.9968h-0.0309c-0.5806,1.2023 -1.7366,1.2793 -2.4508,1.2793c-0.5188,0.0141 -1.0344,-0.0842 -1.5116,-0.2882c-0.4771,-0.204 -0.9045,-0.5088 -1.2527,-0.8935c-0.745,-0.93 -0.8478,-1.6082 -0.8478,-2.8928v-5.60047h2.8157v5.19457c0,0.6423 0,1.8806 1.5106,1.8806c0.8169,0 1.6133,-0.4265 1.6133,-1.9114v-5.13808h2.8208zM15.23296,6.12974h4.1104c2.3276,0 3.1908,0.35452 3.869,0.90944c0.4765,0.40964 0.8563,0.91974 1.1122,1.49365c0.2558,0.5739 0.3814,1.19735 0.3676,1.82557c0.0125,0.6084 -0.0986,1.2131 -0.3264,1.7774c-0.2279,0.5643 -0.5678,1.0766 -0.9992,1.5058c-0.8632,0.7296 -1.711,1.0842 -3.6635,1.0842h-1.3873v3.9255h-3.0828zM18.31576,11.9152h1.3102c0.6115,0 2.0039,0 2.0039,-1.5054c0,-1.5055 -1.4284,-1.47467 -2.122,-1.47467h-1.1921zM3.54381,0c-0.7356,0.00129 -1.44114,0.29197 -1.96417,0.80922c-0.52302,0.51725 -0.82151,1.21954 -0.83096,1.95507v34.42521c-0.00135,0.3681 0.06991,0.733 0.20971,1.0736c0.1398,0.3405 0.34539,0.6502 0.60501,0.9113c0.25962,0.261 0.56817,0.4683 0.90799,0.61c0.33982,0.1417 0.70424,0.2149 1.07241,0.2156h71.12136c0.74,-0.0027 1.4488,-0.2982 1.9716,-0.822c0.5228,-0.5237 0.817,-1.2331 0.8184,-1.9731v-34.4252c-0.0041,-0.73774 -0.2997,-1.44397 -0.8223,-1.96468c-0.52259,-0.52071 -1.2299,-0.81368 -1.9677,-0.81502z" fill="#3e3e3e" fill-opacity="1"></path></g></g></svg>