<?xml version="1.0" encoding="UTF-8"?>
<svg id="SVGDoc" width="106" height="22" xmlns="http://www.w3.org/2000/svg" version="1.1" xmlns:xlink="http://www.w3.org/1999/xlink" xmlns:avocode="https://avocode.com/" viewBox="0 0 106 22"><defs></defs><desc>Generated with Avocode.</desc><g><g><title>Vector</title><path d="M70.66219,3.99009c0.0922,0.00967 0.18501,-0.01209 0.2631,-0.06172c0.0782,-0.04963 0.137,-0.12417 0.1668,-0.21139l0.8811,-2.73802c0.0564,-0.21008 -0.09171,-0.32912 -0.2961,-0.32912h-4.0033c-0.0883,-0.00602 -0.17561,0.02186 -0.2438,0.07789c-0.0682,0.05603 -0.1121,0.13593 -0.1227,0.22322l-0.7049,2.49293c-0.1268,0.29411 0,0.54621 0.2749,0.54621zM81.40369,11.5949c-3.0589,-0.7002 -3.7003,-1.27444 -3.7003,-2.33884c0,-0.91034 0.7964,-1.88371 2.4175,-1.88371c0.7432,0.01659 1.4718,0.20802 2.126,0.5586c0.6543,0.35058 1.2155,0.8503 1.6377,1.45816c0.0393,0.06993 0.0982,0.12702 0.16949,0.16431c0.0713,0.0373 0.152,0.0532 0.2323,0.04576h0.7612c0.0241,0.00398 0.04871,0.00313 0.0725,-0.0025c0.0238,-0.00563 0.0462,-0.01593 0.0659,-0.03029c0.0197,-0.01435 0.0363,-0.03247 0.0488,-0.0533c0.0126,-0.02082 0.0208,-0.04393 0.0242,-0.06796v-2.675c0.0073,-0.09227 -0.0175,-0.18421 -0.07,-0.26062c-0.0526,-0.07641 -0.1298,-0.1327 -0.2189,-0.15954c-1.5909,-0.40521 -3.2281,-0.60294 -4.8703,-0.58822c-2.5586,-0.02101 -5.3778,1.49156 -5.3778,4.64974c0,2.73801 2.19901,4.20161 4.1091,4.71281c3.2492,0.8753 4.2289,1.3445 4.2289,2.71c0,1.1834 -0.9445,1.9117 -2.5726,1.9117c-1.62811,0 -3.1787,-1.1835 -4.0668,-3.3403c-0.14799,-0.217 -0.2467,-0.2731 -0.3947,-0.2731c-0.338,-0.021 -0.677,-0.021 -1.0149,0c-0.0634,-0.0081 -0.1275,0.0086 -0.1787,0.0464c-0.0513,0.0379 -0.0858,0.0941 -0.09621,0.1567v3.2002c0,0.2451 0.3383,0.4902 0.3383,0.4902c1.6115,1.0089 3.4878,1.5207 5.3919,1.4705c3.8201,0 5.6385,-2.3318 5.6385,-5.1119c0,-2.4579 -1.4096,-4.0125 -4.6236,-4.7688zM6.92528,8.0446c-2.93206,-1.00837 -3.52411,-1.85569 -3.52411,-3.03913c0,-1.18345 1.19115,-2.58397 3.76375,-2.58397c0.96643,0.02498 1.90649,0.31852 2.71356,0.84731c0.73591,0.50981 1.33591,1.18998 1.74791,1.98175c0.0305,0.05011 0.0727,0.09218 0.123,0.12266c0.0503,0.03047 0.1072,0.04845 0.166,0.0524h0.9233c0.1199,0 0.1833,-0.09103 0.1833,-0.23809v-3.46629c-0.0069,-0.09058 -0.0417,-0.17685 -0.0997,-0.24703c-0.058,-0.07019 -0.1364,-0.12086 -0.2245,-0.14512c-1.8502,-0.5813 -3.78303,-0.86036 -5.72318,-0.82631c-4.22892,0 -6.97772,2.37389 -6.97772,5.98724c0,3.61335 2.72061,5.04888 6.24471,6.12728c2.26247,0.7003 4.93379,1.6106 4.93379,3.7954c0,1.3095 -1.22643,2.8011 -3.64397,2.8011c-0.69028,0.0335 -1.38017,-0.0735 -2.02737,-0.3143c-0.6472,-0.2408 -1.23806,-0.6105 -1.73637,-1.0862c-0.85914,-0.7935 -1.55562,-1.7447 -2.05103,-2.8011c-0.06343,-0.147 -0.1903,-0.3011 -0.33831,-0.3011c-0.36651,0 -1.07133,0 -1.07133,0c-0.08111,0.0088 -0.15545,0.0491 -0.20691,0.112c-0.05146,0.0629 -0.07588,0.1434 -0.06797,0.2241v4.0685c0.00027,0.0951 0.02268,0.1889 0.06548,0.2739c0.0428,0.085 0.10482,0.1591 0.18121,0.2163c2.19276,1.1225 4.63122,1.6879 7.09754,1.6457c4.03863,0 7.12573,-2.6821 7.12573,-6.9326c0,-4.56576 -4.2289,-5.13997 -7.58386,-6.30241zM72.90349,19.5359h-1.7479c-0.0989,0.012 -0.1986,-0.015 -0.2777,-0.0753c-0.07899,-0.0602 -0.1312,-0.1488 -0.1452,-0.2468c-0.0035,-0.0256 -0.0035,-0.0515 0,-0.077v-12.46471c0,-0.36414 -0.1198,-0.58122 -0.5498,-0.58122h-5.3284c-0.2278,0.22765 -0.359,0.53343 -0.3665,0.85432c0.0224,0.31545 0.1515,0.61409 0.3665,0.84732h1.5013c0.0916,0 0.1832,0.06302 0.1832,0.21708v11.08511c0.0004,0.1075 -0.0401,0.2112 -0.1132,0.2904c-0.0732,0.0791 -0.1737,0.128 -0.2815,0.1368h-1.7479c-0.1069,0.083 -0.193,0.1893 -0.2517,0.3108c-0.05859,0.1215 -0.08829,0.2547 -0.0867,0.3895c0.00121,0.1475 0.0317,0.2933 0.08981,0.4291c0.058,0.1358 0.1425,0.2589 0.2486,0.3622h8.5142c0.1777,-0.2261 0.27441,-0.5045 0.2749,-0.7913c-0.0002,-0.2594 -0.0983,-0.5093 -0.2749,-0.7003zM24.92639,17.3161c-0.3203,0.4548 -0.7406,0.8311 -1.2291,1.1005c-0.4885,0.2693 -1.0323,0.4246 -1.5902,0.4541c-1.4096,0 -2.2625,-0.7003 -2.2625,-2.3109c0,-1.8907 0.8811,-2.8921 5.0818,-2.8921zM30.21259,19.5359c-1.0079,-0.084 -1.1278,-0.7003 -1.1278,-1.3375v-8.025c0.0147,-0.62498 -0.1033,-1.24602 -0.3461,-1.82272c-0.2429,-0.5767 -0.6052,-1.09614 -1.0635,-1.52453c-1.2546,-1.03639 -3.0589,-1.30949 -4.6166,-1.30949c-1.794,-0.02948 -3.5805,0.23794 -5.2861,0.79129c-0.0863,0.04728 -0.156,0.11946 -0.2001,0.20699c-0.044,0.08753 -0.0603,0.18628 -0.0466,0.2832v2.21983c-0.0002,0.07449 0.0281,0.14629 0.0791,0.20088c0.051,0.05459 0.121,0.08791 0.1958,0.09323h0.8598c0.098,-0.00361 0.1935,-0.03103 0.2783,-0.07987c0.0848,-0.04883 0.1563,-0.11759 0.2081,-0.20024c0.4266,-0.56195 0.9578,-1.03738 1.5647,-1.40052c0.5734,-0.29844 1.2067,-0.46591 1.8537,-0.49018c1.6845,0 2.3893,1.21845 2.3893,2.64699v2.21984c-6.3434,-0.3641 -8.9371,1.4845 -8.9371,4.4326c0,3.4103 2.347,4.8389 4.68,4.8389c2.1144,0 3.6721,-0.7913 4.532,-2.0098c0.1832,1.0644 0.8246,1.7927 1.6493,1.7927h3.3056l0.5497,-1.5196zM50.92719,0.68485h-3.3408c-0.1315,0.0995 -0.2368,0.22922 -0.3068,0.37801c-0.0699,0.1488 -0.1025,0.31224 -0.095,0.47631c0,0.70026 0.4018,0.87533 0.4018,0.87533h2.9673c4.2853,0 7.0059,2.85006 7.0059,8.4802c0,6.0502 -2.6572,8.6622 -7.4006,8.6622h-1.9312c-0.1309,-0.0206 -0.2519,-0.0818 -0.3456,-0.1749c-0.0937,-0.0931 -0.1553,-0.2132 -0.176,-0.3433v-8.80228c0,-2.92009 -2.0158,-4.53069 -5.265,-4.53069c-0.9489,-0.05184 -1.8928,0.16973 -2.718,0.63806c-0.8252,0.46833 -1.4967,1.1635 -1.9338,2.00193v-1.82069c0.0058,-0.05116 0.0013,-0.10297 -0.0134,-0.15236c-0.0147,-0.04939 -0.0391,-0.09536 -0.072,-0.13518c-0.0329,-0.03983 -0.0734,-0.0727 -0.1193,-0.09668c-0.0458,-0.02398 -0.0961,-0.03858 -0.1477,-0.04294h-5.5399c-0.1185,0.11293 -0.2123,0.24898 -0.2754,0.39961c-0.063,0.15064 -0.0941,0.3126 -0.0911,0.47572c-0.0163,0.16097 0.0059,0.32348 0.0647,0.47434c0.0587,0.15087 0.1525,0.28585 0.2736,0.39399h1.2687c0.1826,0.01301 0.3543,0.09096 0.4838,0.21957c0.1294,0.12861 0.2079,0.29927 0.221,0.48069v10.50391c-0.0209,0.1272 -0.0833,0.2441 -0.1775,0.3326c-0.0942,0.0886 -0.2151,0.1439 -0.3441,0.1576h-1.2405l-0.5215,1.5196h7.8658c0.0972,-0.1066 0.1717,-0.2317 0.219,-0.3677c0.0472,-0.136 0.0662,-0.2801 0.0558,-0.4236c0.007,-0.1295 -0.0139,-0.2589 -0.0613,-0.3797c-0.0474,-0.1207 -0.1202,-0.23 -0.2135,-0.3206h-0.9445c-0.0592,0.0009 -0.1181,-0.0097 -0.1732,-0.0314c-0.055,-0.0217 -0.1053,-0.0539 -0.1478,-0.0949c-0.0426,-0.0409 -0.0766,-0.0898 -0.1001,-0.1439c-0.0235,-0.054 -0.0361,-0.1121 -0.037,-0.1709v-8.2071c0.7682,-2.10081 2.2624,-3.31226 3.5241,-3.31226c1.2616,0 1.8959,0.87533 1.8959,2.18482v9.16644c0.0109,0.1371 -0.03,0.2733 -0.1147,0.382c-0.0847,0.1088 -0.2071,0.1823 -0.3434,0.2062h-1.1277c-0.1025,0.0851 -0.1838,0.1926 -0.2376,0.3141c-0.0538,0.1214 -0.0786,0.2536 -0.0725,0.3862c-0.0098,0.1464 0.0128,0.2932 0.0664,0.4299c0.0536,0.1367 0.1368,0.2601 0.2437,0.3614h9.2543c9.212,0.028 11.6295,-5.4901 11.6295,-10.1258c0,-7.38779 -5.1734,-10.20985 -11.8128,-10.20985zM104.97289,19.5639c-0.379,0.0337 -0.75999,-0.029 -1.108,-0.1822c-0.34699,-0.1531 -0.64999,-0.3916 -0.88,-0.6931c-0.183,-0.2731 -4.9334,-7.5068 -5.0814,-7.7029c1.2264,-1.64561 1.8396,-2.28285 2.9114,-2.80104c0.944,-0.41303 1.963,-0.62988 2.995,-0.63724c0.083,-0.09553 0.145,-0.20702 0.183,-0.3275c0.03699,-0.12049 0.05,-0.24739 0.036,-0.37276c0.02,-0.27214 -0.057,-0.54274 -0.21899,-0.76329l-4.8069,0.03501c-0.1192,0.01168 -0.234,0.05064 -0.3355,0.11381c-0.1015,0.06318 -0.1869,0.14886 -0.2495,0.25033c-0.0916,0.15406 -3.85529,5.50408 -4.8632,6.93258v-12.21256c0.0097,-0.1271 -0.0315,-0.25288 -0.1146,-0.34994c-0.0832,-0.09706 -0.2016,-0.15753 -0.3295,-0.16825h-0.0775v0h-5.998c-0.0941,0.09105 -0.1687,0.19996 -0.2196,0.32026c-0.0509,0.1203 -0.07681,0.24953 -0.0764,0.38c-0.0075,0.29178 0.0985,0.57519 0.296,0.7913h1.9312c0.2396,0 0.3313,0.11904 0.3313,0.36413v16.63126c0,0.2381 -0.1199,0.3641 -0.27489,0.3641h-1.8326c-0.095,0.0903 -0.1703,0.1991 -0.2213,0.3196c-0.0509,0.1204 -0.0763,0.25 -0.0747,0.3807c-0.0006,0.2906 0.1045,0.5716 0.296,0.7913h7.9716c0.1551,-0.2357 0.2405,-0.5098 0.2467,-0.7913c-0.0061,-0.2534 -0.0924,-0.4985 -0.2467,-0.7003h-1.2899c-0.0884,-0.0018 -0.1727,-0.038 -0.2346,-0.1009c-0.062,-0.0628 -0.0966,-0.1473 -0.0966,-0.2352v-3.8585c0.3665,-0.3921 1.0713,-1.0924 1.1277,-1.1834c0.0627,-0.0806 0.1551,-0.1333 0.2568,-0.1464c0.1017,-0.0131 0.2045,0.0143 0.2859,0.0764c0.04269,0.0353 0.0785,0.078 0.1057,0.126c0.1762,0.2451 3.207,4.9019 3.2704,5.0209c0.0634,0.119 0.0634,0.3291 -0.0916,0.3291h-0.9445c-0.1426,0.2079 -0.2276,0.4494 -0.2467,0.7003c0.0094,0.2673 0.08179,0.5288 0.21149,0.7633h7.986c0.168,-0.2157 0.25401,-0.4833 0.244,-0.756c-0.01,-0.2727 -0.117,-0.5331 -0.301,-0.7356h-0.493v0" fill="#3e3e3e" fill-opacity="1"></path></g></g></svg>