<?xml version="1.0" encoding="UTF-8"?>
<svg id="SVGDoc" width="117" height="18" xmlns="http://www.w3.org/2000/svg" version="1.1" xmlns:xlink="http://www.w3.org/1999/xlink" xmlns:avocode="https://avocode.com/" viewBox="0 0 117 18"><defs></defs><desc>Generated with Avocode.</desc><g><g><title>Vector</title><path d="M98.98917,17.6937h-5.6242l-6.3058,-11.13786v11.13786h-3.579v-17.34402h5.7868l6.1432,10.94182v-10.94182h3.579zM80.55187,17.6937h-13.16949v-17.34402h12.9758v3.20488h-7.8087v3.8534h6.8326v2.89574h-6.8326v4.0419h8.0024zM41.64758,17.6937v-17.34402h6.4763l4.4156,10.62512l4.6481,-10.62512h6.1432v17.34402h-4.9579v-11.43949l-5.1362,11.61299h-3.0522l-4.9424,-11.61299v11.43949zM38.71928,17.6937h-13.1695v-17.34402h13.03v3.20488h-7.8784v3.8534h6.8326v2.89574h-6.8326v4.0419h8.0179zM21.50598,0.34968v17.34402h-5.3066v-17.34402zM12.47318,0.65132v3.37078c-1.5081,-0.59897 -3.11317,-0.93341 -4.74101,-0.98786c-0.68969,-0.03325 -1.37556,0.11801 -1.98317,0.43737c-0.2176,0.09216 -0.40496,0.24081 -0.54159,0.42967c-0.13664,0.18886 -0.21727,0.41066 -0.23309,0.64114c0,0.55803 0.56551,1.06327 1.69654,1.50818l3.25365,1.50818c2.61837,1.22163 3.92757,2.84292 3.92757,4.87892c0.0237,0.7891 -0.1543,1.5714 -0.518,2.2769c-0.3637,0.7055 -0.9018,1.312 -1.5658,1.7651c-1.6442,1.0797 -3.60482,1.6091 -5.58547,1.5081c-0.96498,0.0052 -1.92955,-0.0401 -2.88954,-0.1357c-0.98715,-0.1154 -1.96538,-0.2943 -2.92828,-0.5354v-3.499c1.74146,0.6113 3.57219,0.9473 5.42274,0.9954c1.95993,0 2.93603,-0.558 2.93603,-1.6665c0,-0.558 -0.40284,-1.003 -1.20075,-1.3574l-3.61775,-1.5082c-1.16182,-0.45344 -2.18378,-1.19109 -2.96701,-2.14157c-0.63986,-0.84658 -0.97481,-1.87506 -0.95285,-2.92587c-0.01417,-0.74134 0.16189,-1.4744 0.51224,-2.13278c0.35035,-0.65838 0.86392,-1.22127 1.49417,-1.63767c1.57997,-1.01103 3.44899,-1.50746 5.33753,-1.41768c0.82919,0.00831 1.65707,0.06624 2.47897,0.17344c0.92187,0.15082 1.79727,0.27147 2.66487,0.45245zM114.83138,0.65132v3.37078c-1.523,-0.60266 -3.144,-0.93714 -4.788,-0.98786c-0.689,-0.03325 -1.375,0.11801 -1.983,0.43737c-0.217,0.09216 -0.405,0.24081 -0.54099,0.42967c-0.137,0.18886 -0.218,0.41066 -0.233,0.64114c0,0.55803 0.56499,1.06327 1.688,1.50818l3.25401,1.50818c2.634,1.22163 3.935,2.84292 3.935,4.87892c0.026,0.7902 -0.152,1.574 -0.517,2.28c-0.366,0.706 -0.90701,1.3117 -1.57401,1.762c-1.642,1.0796 -3.6,1.6091 -5.578,1.5081c-0.965,0.005 -1.929,-0.0403 -2.889,-0.1357c-0.988,-0.1154 -1.966,-0.2943 -2.929,-0.5354v-3.499c1.741,0.6124 3.572,0.9485 5.423,0.9954c1.952,0 2.928,-0.558 2.928,-1.6665c0,-0.558 -0.395,-1.003 -1.208,-1.3574l-3.61,-1.5082c-1.163,-0.45559 -2.187,-1.19275 -2.975,-2.14157c-0.645,-0.85061 -0.985,-1.88385 -0.968,-2.94095c-0.013,-0.74191 0.165,-1.47517 0.516,-2.13349c0.35201,-0.65832 0.867,-1.22093 1.498,-1.63696c1.58,-1.01103 3.44901,-1.50746 5.33701,-1.41769c0.827,0.00839 1.652,0.06632 2.472,0.17344c0.92899,0.12065 1.82,0.27147 2.68,0.45245z" fill="#3e3e3e" fill-opacity="1"></path></g></g></svg>