<?xml version="1.0" encoding="UTF-8"?>
<svg id="SVGDoc" width="88" height="20" xmlns="http://www.w3.org/2000/svg" version="1.1" xmlns:xlink="http://www.w3.org/1999/xlink" xmlns:avocode="https://avocode.com/" viewBox="0 0 88 20"><defs></defs><desc>Generated with Avocode.</desc><g><g><title>Vector</title><path d="M20.90194,0.39462l-8.1948,19.17488h-4.41078l-8.15342,-19.17488h6.50382l3.89638,10.76238l3.9023,-10.76238zM40.82134,9.96114c0.0063,1.31476 -0.2446,2.61765 -0.7382,3.83395c-0.4936,1.2163 -1.2201,2.3219 -2.1377,3.2533c-0.9177,0.9313 -2.0084,1.6699 -3.2094,2.1734c-1.201,0.5035 -2.4886,0.7619 -3.7887,0.7603c-1.9563,0.0035 -3.8698,-0.5797 -5.4985,-1.6759c-1.6286,-1.0962 -2.8992,-2.6561 -3.6511,-4.4826c-0.7519,-1.8264 -0.9514,-3.8373 -0.5732,-5.7784c0.3783,-1.94108 1.3172,-3.72514 2.6981,-5.12659c1.3809,-1.40145 3.1417,-2.35733 5.0598,-2.74678c1.9182,-0.38945 3.9074,-0.19496 5.7162,0.55886c1.8088,0.75383 3.356,2.03313 4.4458,3.67614c1.0898,1.643 1.6734,3.57591 1.6769,5.55431zM34.11894,6.75396c-0.8413,-0.85072 -1.9818,-1.32935 -3.1716,-1.33094c-0.8925,-0.00354 -1.766,0.2611 -2.5097,0.76036c-0.7436,0.49926 -1.3238,1.21063 -1.667,2.04387c-0.3432,0.83324 -0.4339,1.75075 -0.2606,2.63625c0.1733,0.8855 0.6027,1.6989 1.2339,2.3372c0.6311,0.6382 1.4355,1.0725 2.3111,1.2477c0.8756,0.1752 1.783,0.0835 2.6069,-0.2635c0.824,-0.3471 1.5275,-0.9338 2.0212,-1.6858c0.4937,-0.752 0.7554,-1.6353 0.7519,-2.53796c-0.0016,-1.2031 -0.4749,-2.35647 -1.3161,-3.20718zM44.30384,0.39462h5.8535v19.17488h-5.8535zM63.53745,6.07474v13.49476h-5.8535v-13.49476h-3.9791v-5.68012h13.8413v5.68012zM81.79544,19.5695v-6.9417h-4.8779v6.9417h-5.8239v-19.17488h5.8535v6.57698h4.8778v-6.57698h5.8239v19.17488z" fill="#3e3e3e" fill-opacity="1"></path></g></g></svg>