<?xml version="1.0" encoding="UTF-8"?>
<svg id="SVGDoc" width="50" height="50" xmlns="http://www.w3.org/2000/svg" version="1.1" xmlns:xlink="http://www.w3.org/1999/xlink" xmlns:avocode="https://avocode.com/" viewBox="0 0 50 50"><defs></defs><desc>Generated with Avocode.</desc><g><g><title>Vector</title><path d="M15.69774,47.649c-2.9756,-1.2288 -5.67919,-3.0332 -7.9556,-5.3096c-2.2764,-2.2764 -4.08079,-4.98 -5.30959,-7.9556c-1.2288,-2.9755 -1.85782,-6.1645 -1.85095,-9.3838c0,-4.8457 1.43689,-9.5825 4.12899,-13.6115c2.69209,-4.02897 6.51845,-7.1692 10.99525,-9.02354c4.4768,-1.85435 9.4029,-2.33953 14.1554,-1.39419c4.7526,0.94534 9.118,3.27873 12.5444,6.70511c3.4264,3.42642 5.7598,7.79182 6.7051,12.54442c0.9454,4.7525 0.4602,9.6786 -1.3942,14.1554c-1.8543,4.4768 -4.9945,8.3032 -9.0235,10.9953c-4.029,2.692 -8.7658,4.1289 -13.6115,4.1289c-3.2193,0.0069 -6.4083,-0.6221 -9.3838,-1.8509zM18.27444,35.7813l4.1132,-9.698c0.0424,-0.1305 0.1297,-0.2417 0.2464,-0.3138c0.1167,-0.0722 0.2552,-0.1005 0.3909,-0.0801h3.9163c0.1356,-0.0204 0.2742,0.0079 0.3909,0.0801c0.1167,0.0721 0.204,0.1833 0.2463,0.3138l4.2639,9.698c0.0985,0.1449 0.1507,0.2955 0.2955,0.2955c0.1448,0 0.2433,-0.1506 0.2954,-0.2955l11.3086,-22.7329c-2.0199,-3.10622 -4.7607,-5.67811 -7.989,-7.49661l-8.1106,18.08101c-0.0435,0.1294 -0.1313,0.2393 -0.2479,0.3103c-0.1165,0.071 -0.2545,0.0986 -0.3894,0.0778h-3.9163c-0.1256,0.007 -0.2501,-0.0271 -0.3546,-0.0971c-0.1045,-0.0701 -0.1834,-0.1722 -0.2247,-0.291l-8.1107,-18.08101c-3.2355,1.80638 -5.97712,4.38085 -7.98316,7.49661l11.26796,22.7329c0.0985,0.1449 0.1449,0.2955 0.2955,0.2955c0.1217,0 0.2433,-0.1506 0.2955,-0.2955zM25.36544,19.6643l6.952,-15.6825c-4.6793,-1.69354 -9.8041,-1.69354 -14.4833,0l6.952,15.6825c0.0985,0.1449 0.1506,0.2897 0.2954,0.2897c0.1449,0 0.197,-0.0985 0.2839,-0.2897zM40.78014,40.6849c4.1699,-4.1612 6.5381,-9.7942 6.5941,-15.6849c0.005,-2.6602 -0.476,-5.2989 -1.4193,-7.7862l-12.9597,26.1105c-0.0352,0.1823 -0.1328,0.3468 -0.276,0.465c-0.1433,0.1183 -0.3232,0.183 -0.509,0.183c-0.1857,0 -0.3657,-0.0647 -0.5089,-0.183c-0.1433,-0.1182 -0.2409,-0.2827 -0.2761,-0.465l-6.0019,-13.3652c-0.0985,-0.1507 -0.139,-0.2955 -0.2896,-0.2955c-0.1507,0 -0.2492,0.1448 -0.2955,0.2955l-5.9787,13.3652c-0.0352,0.1823 -0.1328,0.3468 -0.2761,0.465c-0.1432,0.1183 -0.3232,0.183 -0.5089,0.183c-0.1857,0 -0.3657,-0.0647 -0.509,-0.183c-0.1432,-0.1182 -0.2408,-0.2827 -0.276,-0.465l-12.98284,-26.1105c-0.94335,2.4873 -1.42436,5.126 -1.41936,7.7862c0.01673,5.8859 2.35877,11.5268 6.51588,15.6936c4.15712,4.1669 9.79242,6.5222 15.67832,6.5527c5.8909,-0.0438 11.5287,-2.4002 15.6986,-6.5614z" fill="#3e3e3e" fill-opacity="1"></path></g></g></svg>