<svg xmlns="http://www.w3.org/2000/svg" width="22.758" height="7.758" viewBox="0 0 22.758 7.758">
  <path d="M0,2H21.419V0H0Z" transform="translate(0 2.879)" fill="#f7f9f7"/>
  <path d="M6.355,2.879a5.5,5.5,0,0,1-3.2-.946A2.446,2.446,0,0,1,2,0H0A4.43,4.43,0,0,0,1.982,3.553,7.494,7.494,0,0,0,6.355,4.879Z" transform="translate(16.403)" fill="#f7f9f7"/>
  <path d="M2,4.879A2.446,2.446,0,0,1,3.155,2.946,5.5,5.5,0,0,1,6.355,2V0A7.494,7.494,0,0,0,1.982,1.326,4.43,4.43,0,0,0,0,4.879Z" transform="translate(16.403 2.879)" fill="#f7f9f7"/>
</svg>