<svg width="144" height="50" viewBox="0 0 144 50" fill="none" xmlns="http://www.w3.org/2000/svg">
<path d="M12.4881 32.4824V32.5839C12.4881 36.3921 9.63193 37.8868 6.20455 37.8868H3.2881V45.1859H1.10156V27.2302H6.20455C9.6478 27.2302 12.4881 28.7376 12.4881 32.4824ZM10.3015 32.5839V32.4824C10.3015 29.9436 8.79095 28.9915 6.3537 28.9915H3.2881V36.1541H6.34736C8.91789 36.1509 10.3015 34.9101 10.3015 32.5839Z" fill="#002856"/>
<path d="M13.0903 38.7657V38.5657C13.0903 34.5925 15.6291 31.8284 19.2469 31.8284C22.2871 31.8284 25.1528 33.6627 25.1528 38.3626V39.0354H15.2515C15.353 42.0249 16.7843 43.6846 19.4722 43.6846C21.5096 43.6846 22.6902 42.9293 22.9631 41.3965H25.0703C24.6165 44.0369 22.4299 45.4205 19.4659 45.4205C15.7275 45.4268 13.0903 42.8119 13.0903 38.7657ZM19.2469 33.5643C17.1112 33.5643 15.6799 35.0209 15.3276 37.3566H23.017C22.8171 34.6433 21.4081 33.5643 19.2469 33.5643Z" fill="#002856"/>
<path d="M26.9746 38.7657V38.5657C26.9746 34.5925 29.5134 31.8284 33.1344 31.8284C36.1746 31.8284 39.0403 33.6627 39.0403 38.3626V39.0354H29.1421C29.2437 42.0249 30.6749 43.6846 33.366 43.6846C35.4003 43.6846 36.5808 42.9293 36.8569 41.3965H38.9419C38.4881 44.0369 36.3015 45.4205 33.3375 45.4205C29.6213 45.4268 26.9746 42.8119 26.9746 38.7657ZM33.1344 33.5643C30.9954 33.5643 29.5642 35.0209 29.2119 37.3566H36.9077C36.7077 34.6433 35.3019 33.5643 33.1407 33.5643H33.1344Z" fill="#002856"/>
<path d="M43.7471 34.418C44.5754 32.9359 45.7083 31.9046 48.0694 31.8284V33.7896C45.4291 33.9134 43.7471 34.7417 43.7471 37.985V45.1984H41.6621V32.0537H43.7471V34.418Z" fill="#002856"/>
<path d="M57.2183 45.1986H55.0317V27.2302H57.2183V45.1986Z" fill="#40B3E1"/>
<path d="M62.3465 34.1419C62.9494 32.9106 64.4061 31.8284 66.5672 31.8284C69.2806 31.8284 71.191 33.3104 71.191 37.1313V45.1984H69.106V36.9822C69.106 34.6687 68.1254 33.6373 66.015 33.6373C64.0792 33.6373 62.3465 34.8686 62.3465 37.2329V45.1984H60.2583V32.0537H62.3465V34.1419Z" fill="#40B3E1"/>
<path d="M72.9014 41.1519H74.9356C75.0879 42.7101 75.9162 43.6907 78.0297 43.6907C80.0132 43.6907 80.8859 43.0116 80.8859 41.6057C80.8859 40.1998 79.8577 39.7714 77.8203 39.3843C74.4024 38.7496 73.2473 37.7975 73.2473 35.5126C73.2473 33.0753 75.6337 31.8186 77.6902 31.8186C80.0513 31.8186 82.0855 32.7707 82.4504 35.6268H80.4416C80.1401 34.1956 79.3341 33.5672 77.6775 33.5672C76.1701 33.5672 75.1895 34.3194 75.1895 35.4491C75.1895 36.6328 75.8432 37.1089 78.2551 37.5373C80.9684 38.0387 82.8789 38.6417 82.8789 41.4312C82.8789 43.8208 81.2445 45.4298 78.052 45.4298C74.9134 45.4266 73.0283 43.843 72.9014 41.1519Z" fill="#40B3E1"/>
<path d="M84.8657 27.9283C84.8651 27.6543 84.9458 27.3864 85.0976 27.1584C85.2494 26.9303 85.4654 26.7525 85.7184 26.6474C85.9714 26.5423 86.2498 26.5146 86.5185 26.5679C86.7872 26.6212 87.0341 26.753 87.2278 26.9467C87.4214 27.1404 87.5533 27.3872 87.6066 27.6559C87.6599 27.9246 87.6322 28.2031 87.5271 28.4561C87.422 28.709 87.2441 28.9251 87.0161 29.0769C86.7881 29.2287 86.5201 29.3094 86.2462 29.3087C85.8811 29.3054 85.5319 29.1589 85.2737 28.9007C85.0155 28.6426 84.869 28.2934 84.8657 27.9283ZM87.3284 45.1921H85.2434V32.0538H87.3284V45.1921Z" fill="#40B3E1"/>
<path d="M89.9433 45.9537H92.0791C92.3964 47.4612 93.6373 48.2387 95.8873 48.2387C98.4737 48.2387 100.108 47.0073 100.108 44.1924V42.2883C99.6257 43.0331 98.9689 43.649 98.1947 44.0826C97.4205 44.5161 96.5522 44.7543 95.6652 44.7764C92.2219 44.7764 89.6831 42.1614 89.6831 38.5436V38.3659C89.6831 34.7989 92.1965 31.8317 95.8175 31.8317C98.004 31.8317 99.3591 32.8884 100.114 34.1705V32.0538H102.187V44.3194C102.161 48.1276 99.5749 50 95.9032 50C92.0029 50 90.2924 48.1657 89.9433 45.9537ZM100.172 38.4008V38.2263C100.172 35.2844 98.5626 33.5771 95.9984 33.5771C93.3866 33.5771 91.8284 35.5097 91.8284 38.2739V38.477C91.8284 41.3331 93.6627 43.05 95.8746 43.05C98.3118 43.0373 100.172 41.3299 100.172 38.4008Z" fill="#40B3E1"/>
<path d="M107.537 34.1418C108.14 32.9105 109.596 31.8284 111.758 31.8284C114.471 31.8284 116.381 33.3104 116.381 37.1313V45.1983H114.296V36.9821C114.296 34.6686 113.316 33.6372 111.205 33.6372C109.27 33.6372 107.537 34.8686 107.537 37.2328V45.1983H105.449V25.7733H107.537V34.1418Z" fill="#40B3E1"/>
<path d="M119.752 41.9073V33.8148H117.867V32.0536H119.752V29.0641H121.837V32.0536H124.903V33.8148H121.837V41.7042C121.837 42.9736 122.415 43.6083 123.472 43.6083C124.021 43.6207 124.567 43.5269 125.081 43.3322V45.0903C124.507 45.2926 123.902 45.3873 123.294 45.3696C120.911 45.3823 119.752 43.9669 119.752 41.9073Z" fill="#40B3E1"/>
<path d="M126.108 41.1519H128.146C128.295 42.7101 129.126 43.6907 131.237 43.6907C133.223 43.6907 134.093 43.0116 134.093 41.6057C134.093 40.1998 133.062 39.7714 131.027 39.3843C127.609 38.7496 126.451 37.7975 126.451 35.5126C126.451 33.0753 128.841 31.8186 130.894 31.8186C133.255 31.8186 135.293 32.7707 135.654 35.6268H133.642C133.341 34.1956 132.538 33.5672 130.878 33.5672C129.371 33.5672 128.39 34.3194 128.39 35.4491C128.39 36.6328 129.044 37.1089 131.456 37.5373C134.172 38.0387 136.08 38.6417 136.08 41.4312C136.08 43.8208 134.448 45.4298 131.256 45.4298C128.12 45.4266 126.235 43.843 126.108 41.1519Z" fill="#40B3E1"/>
<path d="M67.6363 5.02472L67.4396 7.37311H66.4875C64.9579 7.37311 64.1613 8.60125 64.1613 9.77862V15.0847H61.4448V5.02472H64.0185L64.0757 6.29412C64.6152 5.4341 65.5609 5.02472 66.7255 5.02472H67.6363Z" fill="#002856"/>
<path d="M48.8079 15.0845H46.0914V9.76575C46.0914 8.65185 45.993 7.24916 44.4285 7.24916C42.9179 7.24916 42.3181 8.34085 42.3181 9.60707V15.0845H39.6016V5.02454H42.1181L42.1753 6.29394C42.7179 5.43392 43.7239 4.76114 45.206 4.76114C47.9447 4.76114 48.8079 6.71601 48.8079 8.7534V15.0845Z" fill="#002856"/>
<path d="M38.4147 12.7366L38.2243 15.0247C37.5955 15.1941 36.946 15.2742 36.2948 15.2627C33.7338 15.2627 33.0039 14.0885 33.0039 11.7433V2.1879H35.7204V5.02501H38.3989L38.2116 7.37339H35.695V11.5243C35.695 12.4764 35.9553 12.981 36.9264 12.981C37.4284 12.9822 37.9272 12.8996 38.402 12.7366" fill="#002856"/>
<path d="M32.0992 5.02472L31.8866 7.37311H31.1504C29.6207 7.37311 28.8591 8.60125 28.8591 9.77862V15.0847H26.1426V5.02472H28.7163L28.7702 6.29412C29.3129 5.4341 30.2554 5.02472 31.4233 5.02472H32.0992Z" fill="#002856"/>
<path d="M13.8777 13.9646C12.0171 15.0194 9.89971 15.5359 7.76238 15.4562C3.25284 15.3166 0 12.5175 0 7.78901C0 3.0605 3.28457 0.0742327 7.76238 0.00124218C10.0346 -0.0304928 12.0593 0.543911 13.6461 1.9466L11.742 3.88243C10.7582 3.04463 9.31422 2.54004 7.58466 2.63207C4.76025 2.76219 3.0656 4.81227 3.03069 7.61764C2.99261 10.6705 4.86497 12.7746 7.79094 12.8507C8.88925 12.9223 9.98928 12.7398 11.0057 12.3176V9.20439H7.96549L8.16859 6.66559H13.8809L13.8777 13.9646Z" fill="#002856"/>
<path d="M57.5014 8.90625C57.4157 7.63685 56.4637 6.83396 55.153 6.88473C54.5796 6.87951 54.0235 7.08094 53.5864 7.45216C53.1494 7.82337 52.8606 8.33956 52.7729 8.90625H57.5014ZM60.2243 11.0103H52.7729C52.8615 11.6013 53.1622 12.1399 53.6189 12.5253C54.0756 12.9108 54.6571 13.1168 55.2546 13.1048C56.4764 13.1397 57.1587 12.7684 58.0568 11.864L59.8308 13.2159C59.3035 13.9008 58.6205 14.4501 57.8384 14.8182C57.0563 15.1864 56.1978 15.3627 55.3339 15.3326C52.3032 15.3326 50.0342 13.2127 50.0342 10.0551C50.0342 6.89743 52.2937 4.77753 55.2197 4.77753C58.4471 4.77753 60.2211 6.7324 60.2211 10.2042L60.2243 11.0103Z" fill="#002856"/>
<path d="M21.8176 10.699H21.4399C20.1515 10.699 17.892 10.7625 17.9015 12.1112C17.9015 14.0153 21.8176 13.4029 21.8176 11.1148V10.699ZM24.4357 8.49662V15.0848H22.0365L21.9762 14.0947C21.24 15.0055 20.0468 15.3323 18.8027 15.3323C16.9526 15.3323 15.204 14.4215 15.1691 12.2953C15.112 8.9536 18.9265 8.71877 21.3225 8.71877H21.8017V8.58548C21.8017 7.4811 21.0686 6.88448 19.6945 6.88448C18.6964 6.89126 17.7377 7.27431 17.0097 7.95713L15.442 6.37038C16.6965 5.32017 18.2872 4.75688 19.923 4.78363C23.0584 4.77728 24.4357 6.21805 24.4357 8.49662Z" fill="#002856"/>
<path d="M137.854 42.3739H140.218V42.8435H139.333V45.5537H138.739V42.8435H137.854V42.3739Z" fill="#40B3E1"/>
<path d="M142.277 44.5414L143.096 42.3739H143.877V45.5474H143.287V43.1609L142.335 45.5601H142.144L141.192 43.1609V45.5601H140.649V42.3866H141.443L142.277 44.5414Z" fill="#40B3E1"/>
</svg>
