<?xml version="1.0" encoding="utf-8"?>
<!-- Generator: Adobe Illustrator 23.0.3, SVG Export Plug-In . SVG Version: 6.00 Build 0)  -->
<svg version="1.1" xmlns="http://www.w3.org/2000/svg" xmlns:xlink="http://www.w3.org/1999/xlink" x="0px" y="0px" viewBox="0 0 140 140" enable-background="new 0 0 140 140" xml:space="preserve">
  <g id="Layer_1"></g>
  <g id="Layer_2">
    <circle fill="none" stroke="#0B1824" stroke-width="6" stroke-miterlimit="10" cx="70" cy="70" r="57" />
    <path fill="#00AFE6" d="M99.1,65.8c0-1.9-1.6-3.3-3.5-3.3c-0.9,0-1.9,0-2.8,0c-2,0-3.6-1.6-3.7-3.5c0-0.8-0.1-1.6-0.2-2.4
		c-1-7.9-8.1-14.5-16.1-14.8c-3.5-0.1-6.9-0.1-10.4-0.1c-9.7,0.1-17.4,7.8-17.5,17.6c0,6.4,0,12.8,0,19.2c0,9.4,7.2,17,16.6,17.5
		c3.5,0.2,7,0,10.6,0c0,0,0,0,0,0c2.3,0,4.6,0,6.9,0c2.2,0,4.4,0,6.6-0.5c7-1.5,12.8-7.9,13.4-15C99.3,75.6,99.1,70.7,99.1,65.8z
		 M62,57h12c1.7,0,3,1.3,3,3s-1.3,3-3,3H62c-1.7,0-3-1.3-3-3S60.3,57,62,57z M82,82H62c-1.7,0-3-1.3-3-3s1.3-3,3-3h20
		c1.7,0,3,1.3,3,3S83.7,82,82,82z" />
  </g>
</svg>